<?xml version="1.0" standalone="no"?>
<!DOCTYPE svg PUBLIC "-//W3C//DTD SVG 1.1//EN" "http://www.w3.org/Graphics/SVG/1.1/DTD/svg11.dtd" >
<svg>
<metadata>
Created by FontForge 20110222 at Mon Sep  3 17:32:27 2012
 By Stefan Warting
(c) Graham Meade. All rights reserved. gem@c031.aone.net.au
</metadata>
<defs>
<font id="Lane-Narrow" horiz-adv-x="521" >
  <font-face 
    font-family="Lane - Narrow"
    font-weight="400"
    font-stretch="normal"
    units-per-em="1000"
    panose-1="2 0 5 6 2 0 0 2 0 4"
    ascent="800"
    descent="-200"
    x-height="519"
    cap-height="719"
    bbox="-178 -235 1000 1002"
    underline-thickness="21"
    underline-position="-93"
    unicode-range="U+000D-2212"
  />
<missing-glyph horiz-adv-x="260" 
 />
    <glyph glyph-name=".notdef" horiz-adv-x="260" 
 />
    <glyph glyph-name="NULL" horiz-adv-x="0" 
 />
    <glyph glyph-name="NULL" horiz-adv-x="0" 
 />
    <glyph glyph-name="nonmarkingreturn" unicode="&#xd;" horiz-adv-x="260" 
 />
    <glyph glyph-name="space" unicode=" " horiz-adv-x="260" 
 />
    <glyph glyph-name="quotesingle" unicode="'" horiz-adv-x="134" 
d="M84 700v-221h-34v221h34z" />
    <glyph glyph-name="parenleft" unicode="(" horiz-adv-x="288" 
d="M251 -219q-154 229 -154 477q0 246 143 458h35q-145 -205 -145 -454q0 -251 155 -481h-34z" />
    <glyph glyph-name="parenright" unicode=")" horiz-adv-x="288" 
d="M6 -219q156 231 156 481q0 249 -145 454h35q143 -212 143 -458q0 -244 -155 -477h-34v0z" />
    <glyph glyph-name="asterisk" unicode="*" horiz-adv-x="500" 
d="M173 559q31 18 51 24q-20 6 -51 24q-57 33 -57 49q0 8 10 8q18 0 65 -27q16 -8 27 -16t19 -15q-2 11 -3.5 24.5t-1.5 30.5q0 76 18 76t18 -76q0 -17 -1.5 -30.5t-3.5 -24.5q8 7 19 15t27 16q46 27 65 27q10 0 10 -8q0 -16 -57 -49q-32 -18 -51 -24q19 -6 51 -24
q57 -33 57 -49q0 -8 -10 -8q-19 0 -65 27q-16 8 -27 16t-19 15q2 -11 3.5 -24.5t1.5 -30.5q0 -76 -18 -76t-18 76q0 17 1.5 30.5t3.5 24.5q-8 -7 -19 -15t-27 -16q-47 -27 -65 -27q-10 0 -10 8q0 16 57 49zM249 581h2l2 2l-2 2h-2l-2 -2z" />
    <glyph glyph-name="plus" unicode="+" horiz-adv-x="833" 
d="M432 596v-283h277v-30h-277v-283h-30v283h-278v30h278v283h30z" />
    <glyph glyph-name="comma" unicode="," horiz-adv-x="260" 
d="M85 51q0 19 13 33.5t31 14.5v3h35v-221h-35v122q-18 0 -31 15t-13 33z" />
    <glyph glyph-name="hyphen" unicode="-" horiz-adv-x="343" 
d="M38 272h266v-28h-266v28z" />
    <glyph glyph-name="hyphen" unicode="&#xad;" horiz-adv-x="343" 
d="M38 272h266v-28h-266v28z" />
    <glyph glyph-name="period" unicode="." horiz-adv-x="260" 
d="M108 41q0 15 1 18v4q1 1 1 4q1 1 1 2q0 2 1 3q2 6 5 9q2 3 7 5q1 1 6 1h2q2 -1 4.5 -1.5t4.5 -2.5l4 -5l3 -6q2 -8 2 -9q1 -5 1.5 -10.5t0.5 -11.5v-9q0 -2 -0.5 -3t-0.5 -3q0 -6 -1 -7q0 -2 -2 -10l-3 -7l-2 -2q-4 -4 -8 -5q-1 -1 -5 -1q-5 0 -6 1q-2 0 -4 2q-5 3 -6 7
q-1 1 -1 3q-1 2 -2 6t-2 9q-1 2 -1 10v9v0z" />
    <glyph glyph-name="slash" unicode="/" horiz-adv-x="292" 
d="M333 738l-315 -821h-34l315 821h34z" />
    <glyph glyph-name="zero" unicode="0" 
d="M39 340q0 140 41 234q56 125 180 125q125 0 181 -125q41 -94 41 -234q0 -141 -41 -235q-55 -124 -181 -124q-124 0 -180 125q-41 94 -41 234zM73 340q0 -126 32 -211q47 -119 156 -119t156 119q31 78 31 211q0 132 -31 210q-47 119 -156 119q-110 0 -156 -118
q-32 -85 -32 -211zM177 228l137 228l24 -15l-137 -228z" />
    <glyph glyph-name="one" unicode="1" 
d="M158 542l116 138l1 -1h33v-679h-33l-1 630l-116 -133v45z" />
    <glyph glyph-name="two" unicode="2" 
d="M391 396q41 47 41 112q0 73 -43 116t-116 43q-78 0 -123 -45.5t-45 -124.5v-11h-35v9q0 97 53 150t150 53q88 0 141.5 -49.5t53.5 -137.5q0 -76 -45 -128h1l-318 -353h358v-30h-432l359 396v0z" />
    <glyph glyph-name="three" unicode="3" 
d="M253 14q80 0 133 47q55 49 55 129q0 87 -54 137q-53 48 -140 48h-16q-10 0 -15 -1l-5 32l23 -1q186 -8 186 136q0 126 -159 126q-123 0 -155 -107l-29 14q39 123 191 123q81 0 131 -36q56 -41 56 -119q0 -142 -116 -153q64 -14 101 -73q36 -54 36 -122q0 -98 -63 -156
q-61 -55 -159 -55q-173 0 -203 163l30 14q23 -146 172 -146z" />
    <glyph glyph-name="four" unicode="4" 
d="M366 181h-319l-10 22l326 475l35 1v-468h77v-30h-77v-181h-32v181zM367 623l-286 -413h286v413z" />
    <glyph glyph-name="five" unicode="5" 
d="M80 175q16 -165 171 -165q90 0 139 55q49 52 49 143q0 88 -49 138t-134 50q-102 0 -157 -72h-27l-1 355h374v-30h-341v-281q58 57 158 57q98 0 155 -62q56 -62 56 -159q0 -51 -15.5 -92.5t-44 -70.5t-69 -45t-91.5 -16q-88 0 -144 53q-52 51 -61 142h32z" />
    <glyph glyph-name="six" unicode="6" 
d="M434 529q-20 137 -155 137q-198 0 -198 -335v-30v-11t1 -9q39 160 190 160q99 0 153 -67q50 -62 50 -163q0 -98 -51 -162q-56 -68 -151 -68q-226 0 -226 342q0 374 238 374q79 0 127 -45q46 -44 54 -123h-32zM440 211q0 88 -40 140q-45 60 -129 60q-82 0 -129 -59
q-42 -56 -42 -140q0 -87 40 -139q43 -61 126 -61q84 0 131 59q43 52 43 140z" />
    <glyph glyph-name="seven" unicode="7" 
d="M475 680l-239 -680h-34l227 646l-371 1v32h382v1h35z" />
    <glyph glyph-name="eight" unicode="8" 
d="M176 373q-104 44 -104 151q0 81 54 129q51 45 134 45q84 0 135 -45q53 -47 53 -129q0 -105 -103 -151q132 -44 132 -180q0 -101 -61 -156q-58 -55 -159 -55q-95 0 -153 55q-60 57 -60 152q0 137 132 184zM79 194q0 -82 49.5 -130.5t131.5 -48.5q40 0 73.5 12.5t57.5 35.5
t37.5 55.5t13.5 73.5q0 80 -52 123q-50 41 -130 41q-83 0 -129 -40q-52 -43 -52 -122zM108 527q0 -68 43 -105q40 -36 109 -36t109 37q44 38 44 104t-44 105q-40 37 -109 37t-109 -37q-43 -39 -43 -105z" />
    <glyph glyph-name="nine" unicode="9" 
d="M87 148q20 -137 155 -137q198 0 198 335v28v12t-1 10q-18 -74 -65 -116q-53 -44 -125 -44q-100 0 -152 67q-50 62 -50 163q0 97 50 162q54 69 151 69q227 0 227 -343q0 -373 -239 -373q-77 0 -127 44q-47 43 -54 123h32zM81 466q0 -84 41 -140q45 -60 128 -60
q82 0 129 60q43 52 43 139t-40 139q-45 61 -127 61q-84 0 -131 -59q-43 -52 -43 -140z" />
    <glyph glyph-name="colon" unicode=":" horiz-adv-x="284" 
d="M113 436q0 47 22 47t22 -47t-22 -47t-22 47zM113 41q0 46 22 46t22 -46q0 -47 -22 -47t-22 47z" />
    <glyph glyph-name="semicolon" unicode=";" horiz-adv-x="284" 
d="M85 51q0 19 13 33.5t31 14.5v3h35v-221h-35v122q-18 0 -31 15t-13 33zM113 436q0 47 22 47t22 -47t-22 -47t-22 47z" />
    <glyph glyph-name="semicolon" unicode="&#x37e;" horiz-adv-x="284" 
d="M85 51q0 19 13 33.5t31 14.5v3h35v-221h-35v122q-18 0 -31 15t-13 33zM113 436q0 47 22 47t22 -47t-22 -47t-22 47z" />
    <glyph glyph-name="less" unicode="&#x3c;" horiz-adv-x="532" 
d="M462 458l-339 -160l339 -164v-34l-393 188v20l393 184v-34z" />
    <glyph glyph-name="equal" unicode="=" horiz-adv-x="833" 
d="M709 237v-31h-585v31h585zM709 395v-31h-585v31h585z" />
    <glyph glyph-name="greater" unicode="&#x3e;" horiz-adv-x="532" 
d="M462 308v-20l-393 -188v34l340 164l-340 160v34z" />
    <glyph glyph-name="question" unicode="?" horiz-adv-x="463" 
d="M36 576q12 56 47 98q55 60 155 60q84 0 137 -44q58 -46 58 -129q0 -72 -52 -112l-97 -74q-53 -51 -53 -139q0 -14 1.5 -28.5t3.5 -30.5h-32q-3 30 -3 55q0 100 51 159q6 6 96 72q51 37 51 94q0 145 -167 145q-140 0 -164 -136zM196 47q0 47 21 47q22 0 22 -47t-22 -47
q-21 0 -21 47z" />
    <glyph glyph-name="at" unicode="@" horiz-adv-x="1000" 
d="M440 63q-87 -2 -137 81q-26 44 -26 93q0 11 1.5 24t3.5 29q16 104 71 165q61 70 159 72q116 3 146 -93l14 88l32 1l-67 -428q1 -10 2 -15.5t2 -7.5q4 -9 21 -9q4 0 9 0.5t12 1.5q55 10 87 33q6 4 19.5 17t34.5 35q74 80 74 230q0 141 -111 224q-99 72 -247 72
q-161 0 -277 -92q-157 -126 -157 -336q0 -169 116 -264q106 -88 282 -88q169 0 308 94l11 -17q-141 -105 -314 -105q-186 0 -301 88q-146 111 -146 300q0 159 96 276q143 173 386 173q161 0 268 -81q126 -96 126 -245q0 -180 -107 -266q-29 -22 -44.5 -34.5t-19.5 -14.5
q-19 -11 -42.5 -18t-51.5 -11q-8 -1 -14.5 -1.5t-11.5 -0.5q-44 0 -44 35q0 8 1 10h-1l13 85q-58 -97 -176 -100zM330 151q33 -61 115 -58q82 2 134 65q46 53 59 141q2 13 3 26t1 26q0 50 -20 88q-31 61 -114 59q-82 -2 -134 -65q-47 -56 -60 -142q-2 -14 -3 -27.5t-1 -24.5
q0 -50 20 -88z" />
    <glyph glyph-name="A" unicode="A" horiz-adv-x="574" 
d="M272 719h38l273 -719h-33l-93 245h-335l-94 -245h-33zM445 275l-154 405l-157 -405h311z" />
    <glyph glyph-name="B" unicode="B" horiz-adv-x="618" 
d="M82 719h197q134 0 186 -31q77 -45 77 -147q0 -121 -123 -164q160 -31 160 -185q0 -106 -82 -157q-59 -35 -196 -35h-219v719zM294 30q118 0 162 18q88 36 88 150q0 98 -81 136q-57 27 -168 27h-179v-331h178zM283 387q225 0 225 156q0 91 -73 124q-47 22 -154 22h-165
v-302h167z" />
    <glyph glyph-name="C" unicode="C" horiz-adv-x="681" 
d="M618 173q-19 -73 -74 -122q-74 -65 -194 -65q-154 0 -232 113q-67 97 -67 259t69 263q79 114 236 114q107 0 181 -59q53 -42 75 -103l-31 -16q-49 148 -231 148q-135 0 -205 -111q-59 -95 -59 -236q0 -143 57 -234q68 -110 202 -110q108 0 175 58q52 45 69 116l29 -15v0z
" />
    <glyph glyph-name="D" unicode="D" horiz-adv-x="689" 
d="M82 719h165q158 0 231 -35q159 -80 159 -325q0 -249 -159 -324q-78 -35 -231 -35h-165v719zM255 30q145 0 214 36q133 70 133 293q0 181 -95 267q-45 40 -119 54q-23 4 -55.5 6t-77.5 2h-139v-658h139z" />
    <glyph glyph-name="E" unicode="E" horiz-adv-x="567" 
d="M82 719h439v-32h-405v-297h321v-31h-321v-327h415v-32h-449v719z" />
    <glyph glyph-name="F" unicode="F" horiz-adv-x="523" 
d="M82 719h420v-32h-386v-297h307v-31h-307v-359h-34v719z" />
    <glyph glyph-name="G" unicode="G" horiz-adv-x="709" 
d="M603 546q-48 159 -239 159q-139 0 -213 -107q-64 -91 -64 -239q0 -147 64 -238q74 -107 213 -107q122 0 191 74q67 70 67 195v31h-237v30h269q1 -5 1 -9.5v-9.5v-18q0 -229 -157 -296q-64 -26 -134 -26q-156 0 -238 112q-74 101 -74 262q0 162 73 262q82 114 239 114
q96 0 167 -41q76 -45 103 -133l-31 -15v0z" />
    <glyph glyph-name="H" unicode="H" horiz-adv-x="686" 
d="M82 719h34v-320h455v320h33v-719h-33v369h-455v-369h-34v719z" />
    <glyph glyph-name="I" unicode="I" horiz-adv-x="207" 
d="M87 719h33v-719h-33v719z" />
    <glyph glyph-name="J" unicode="J" horiz-adv-x="473" 
d="M217 13q90 0 123 62q25 43 25 144v500h33v-510q0 -225 -184 -225q-121 0 -160 97q8 2 15.5 5.5t15.5 7.5q33 -81 132 -81z" />
    <glyph glyph-name="K" unicode="K" horiz-adv-x="582" 
d="M82 719h34v-405l399 405h43l-284 -288l327 -431h-40l-309 408l-136 -138v-270h-34v719z" />
    <glyph glyph-name="L" unicode="L" horiz-adv-x="509" 
d="M83 719h34v-687h381v-32h-415v719z" />
    <glyph glyph-name="M" unicode="M" horiz-adv-x="773" 
d="M82 719h48l262 -506l252 506h47v-719h-30v677l-260 -505h-20l-269 505v-677h-30v719z" />
    <glyph glyph-name="N" unicode="N" horiz-adv-x="682" 
d="M82 719h34l451 -662v662h33v-719h-33l-452 661v-661h-33v719z" />
    <glyph glyph-name="O" unicode="O" horiz-adv-x="741" 
d="M52 359q0 163 75 264q84 112 243 112q160 0 244 -111q75 -101 75 -265q0 -165 -75 -264q-84 -110 -244 -110t-243 110q-75 99 -75 264zM87 359q0 -149 65 -241q74 -104 218 -104q145 0 219 104q65 92 65 241t-66 241q-75 105 -218 105t-218 -105q-65 -92 -65 -241z" />
    <glyph glyph-name="P" unicode="P" horiz-adv-x="575" 
d="M278 719q259 0 259 -190q0 -87 -54 -142q-36 -36 -97 -48q-32 -7 -111 -7h-159v-332h-34v719h196zM116 689v-327h137q126 0 167 19q82 36 82 151q0 130 -133 151q-36 6 -115 6h-138z" />
    <glyph glyph-name="Q" unicode="Q" horiz-adv-x="741" 
d="M690 -105q-123 8 -164 56q-18 21 -29 55q-57 -21 -127 -21q-160 0 -243 110q-75 99 -75 264q0 163 75 264q84 112 243 112q160 0 244 -111q75 -101 75 -265q0 -175 -85 -275q-36 -42 -82 -66q10 -31 26 -48q34 -40 148 -49zM489 37q-11 46 -15 60q-11 32 -27 50
q-34 41 -149 49l2 32q22 -2 44.5 -6t46.5 -11q64 -19 88 -57q15 -25 34 -104q35 20 65 56q76 91 76 253q0 149 -66 241q-75 105 -218 105t-218 -105q-65 -92 -65 -241t65 -241q74 -104 218 -104q64 0 119 23z" />
    <glyph glyph-name="R" unicode="R" horiz-adv-x="622" 
d="M116 340v-340h-34v719h239q120 0 175 -34q71 -44 71 -154q0 -137 -130 -177q91 -18 101 -124q1 -3 1 -93l1 -137h-39v161q0 29 -0.5 46.5t-1.5 25.5q-11 66 -56 89q-35 18 -110 18h-217zM338 370q195 0 195 158q0 133 -121 155q-14 2 -37 3.5t-54 1.5h-205v-318h222z" />
    <glyph glyph-name="S" unicode="S" horiz-adv-x="573" 
d="M78 219q6 -94 61 -149.5t152 -55.5q84 0 140 42q64 46 64 126q0 83 -67 125q-32 22 -144 52q-1 1 -13 4q-123 34 -157 65q-51 46 -51 119q0 92 64 141q59 47 152 47q101 0 162 -55q64 -56 68 -156h-32q-1 86 -59 136q-56 47 -141 47q-80 0 -129 -40q-53 -42 -53 -120
q0 -56 44 -97q32 -29 142 -58q2 -1 5.5 -1.5t8.5 -2.5q115 -31 158 -58q76 -49 76 -139q0 -100 -71 -156q-65 -50 -168 -50q-109 0 -173 63q-65 61 -72 171h33z" />
    <glyph glyph-name="T" unicode="T" horiz-adv-x="509" 
d="M240 688h-224v31h482v-31h-224v-688h-34v688z" />
    <glyph glyph-name="U" unicode="U" horiz-adv-x="671" 
d="M110 719v-452q0 -253 226 -253q115 0 173 70q53 65 53 183v452h33v-468q0 -125 -67 -195q-69 -71 -192 -71q-124 0 -192 71q-67 67 -67 195v468h33z" />
    <glyph glyph-name="V" unicode="V" horiz-adv-x="525" 
d="M-2 719h34l231 -670l230 670h35l-250 -719h-32z" />
    <glyph glyph-name="W" unicode="W" horiz-adv-x="824" 
d="M8 719h34l176 -659l178 488h32l179 -488l175 659h34l-192 -719h-34l-178 501l-178 -501h-34z" />
    <glyph glyph-name="X" unicode="X" horiz-adv-x="530" 
d="M245 368l-233 351h39l214 -323l213 323h37l-230 -350l244 -369h-38l-228 339l-225 -339h-37z" />
    <glyph glyph-name="Y" unicode="Y" horiz-adv-x="530" 
d="M248 318l-247 401h38l227 -367l224 367h38l-247 -403v-316h-33v318z" />
    <glyph glyph-name="Z" unicode="Z" horiz-adv-x="529" 
d="M9 33l462 655h-423v31h459v-34l-462 -655h474v-30h-510v33z" />
    <glyph glyph-name="bracketleft" unicode="[" horiz-adv-x="302" 
d="M115 -205v923h169v-31h-134v-862h134v-30h-169z" />
    <glyph glyph-name="backslash" unicode="\" horiz-adv-x="292" 
d="M-1 738l308 -821h-35l-308 821h35z" />
    <glyph glyph-name="bracketright" unicode="]" horiz-adv-x="302" 
d="M22 -175h134v862h-134v31h169v-923h-169v30z" />
    <glyph glyph-name="asciicircum" unicode="^" horiz-adv-x="542" 
d="M295 711l145 -245h-53l-116 196l-115 -196h-53l145 245h47z" />
    <glyph glyph-name="underscore" unicode="_" horiz-adv-x="500" 
d="M500 -205v-30h-500v30h500z" />
    <glyph glyph-name="grave" unicode="`" horiz-adv-x="500" 
d="M253 584l-102 160h53l102 -160h-53z" />
    <glyph glyph-name="a" unicode="a" horiz-adv-x="572" 
d="M471 112q-50 -125 -196 -125q-113 0 -175 80q-54 73 -54 191q0 119 54 191q60 81 175 81q145 0 196 -130v119h31v-519h-31v112zM78 258q0 -105 45 -169q52 -75 152 -75t151 75q45 64 45 169q0 104 -45 169q-51 75 -151 75t-151 -75q-46 -64 -46 -169z" />
    <glyph glyph-name="b" unicode="b" horiz-adv-x="572" 
d="M69 718h32v-317q54 129 196 129q114 0 175 -82q54 -72 54 -190q0 -119 -54 -191q-60 -80 -175 -80q-136 0 -196 123v-110h-32v718zM101 258q0 -105 45 -169q52 -75 151 -75t152 75q45 64 45 169q0 104 -45 169q-53 75 -152 75q-100 0 -151 -75q-45 -65 -45 -169z" />
    <glyph glyph-name="c" unicode="c" horiz-adv-x="519" 
d="M466 125q-17 -56 -56 -91q-56 -47 -141 -47q-112 0 -172 82q-53 74 -53 189q0 118 54 190q60 82 174 82q141 0 185 -113l-27 -18q-14 39 -48 67q-45 36 -110 36q-100 0 -151 -75q-45 -65 -45 -169q0 -105 45 -169q52 -75 151 -75q61 0 106.5 33.5t60.5 93.5l27 -16v0z
" />
    <glyph glyph-name="d" unicode="d" horiz-adv-x="572" 
d="M502 0h-31v115q-51 -128 -196 -128q-115 0 -175 80q-54 72 -54 191q0 118 54 190q61 82 175 82q148 0 196 -125v313h31v-718zM471 258q0 104 -45 169q-51 75 -151 75t-151 -75q-46 -64 -46 -169t45 -169q52 -75 152 -75t151 75q45 64 45 169z" />
    <glyph glyph-name="e" unicode="e" horiz-adv-x="523" 
d="M397 31q-56 -44 -134 -44q-111 0 -169 82q-51 73 -51 189t51 188q58 84 169 84q109 0 166 -75q52 -67 52 -180v-19h-405v-8q0 -96 45 -160q51 -74 142 -74q126 0 171 118l26 -14q-20 -53 -63 -87zM447 285q0 92 -43 150q-48 67 -135 67q-90 0 -141 -65q-45 -58 -51 -152
h370z" />
    <glyph glyph-name="f" unicode="f" horiz-adv-x="211" 
d="M48 592q0 68 15 95q19 36 82 36l92 1v-27h-87q-47 0 -62 -30q-9 -20 -9 -74v-74h102v-29h-102v-490h-31v592v0z" />
    <glyph glyph-name="g" unicode="g" horiz-adv-x="572" 
d="M471 111q-54 -125 -198 -125q-114 0 -174 81q-53 74 -53 191q0 119 54 191q60 81 175 81q67 0 120 -32t76 -95v116h31v-491q0 -98 -33 -146q-62 -90 -208 -90q-80 0 -133 35q-60 41 -61 118h30q4 -66 57 -98q45 -27 115 -27q130 0 179 88q23 41 23 150v53zM471 258
q0 104 -45 169q-51 75 -151 75t-151 -75q-46 -64 -46 -169t45 -169q52 -75 152 -75t151 75q45 64 45 169z" />
    <glyph glyph-name="h" unicode="h" 
d="M69 718h32v-284q49 96 175 96q178 0 178 -186v-344h-32v334q0 83 -30 122q-35 45 -115 45q-147 0 -171 -133q-2 -15 -3.5 -37.5t-1.5 -52.5v-278h-32v718z" />
    <glyph glyph-name="i" unicode="i" horiz-adv-x="175" 
d="M72 519h31v-519h-31v519zM66 680q0 47 21 47q22 0 22 -47q0 -48 -22 -48q-21 0 -21 48z" />
    <glyph glyph-name="j" unicode="j" horiz-adv-x="175" 
d="M104 519v-599q0 -70 -13 -92q-19 -34 -80 -34h-61v30h54q50 0 62 30q7 14 7 77v588h31zM64 680q0 47 21 47q22 0 22 -47q0 -48 -22 -48q-21 0 -21 48z" />
    <glyph glyph-name="k" unicode="k" horiz-adv-x="458" 
d="M69 718h32v-495l299 296h39l-189 -189l219 -330h-36l-205 308l-127 -123v-185h-32v718z" />
    <glyph glyph-name="l" unicode="l" horiz-adv-x="175" 
d="M72 718h31v-718h-31v718z" />
    <glyph glyph-name="m" unicode="m" horiz-adv-x="817" 
d="M69 519h32v-85q51 96 162 96q126 0 154 -106q54 106 169 106q164 0 164 -186v-344h-32v312q0 87 -15 122q-28 67 -118 67q-93 0 -131 -68q-29 -53 -29 -153v-280h-31v312q0 87 -15 122q-28 67 -118 67q-133 0 -155 -132q-2 -15 -3.5 -37.5t-1.5 -51.5v-280h-32v519z" />
    <glyph glyph-name="n" unicode="n" 
d="M69 519h32v-85q49 96 175 96q178 0 178 -186v-344h-32v334q0 83 -30 122q-35 45 -115 45q-147 0 -171 -133q-2 -15 -3.5 -37.5t-1.5 -52.5v-278h-32v519z" />
    <glyph glyph-name="o" unicode="o" horiz-adv-x="545" 
d="M44 258q0 118 54 190q60 82 174 82t175 -82q54 -72 54 -190t-54 -191q-62 -80 -175 -80q-114 0 -174 80q-54 73 -54 191zM76 258q0 -105 45 -169q52 -75 151 -75t152 75q45 64 45 169q0 104 -45 169q-53 75 -152 75q-100 0 -151 -75q-45 -65 -45 -169z" />
    <glyph glyph-name="p" unicode="p" horiz-adv-x="572" 
d="M69 519h32v-119q51 130 196 130q115 0 175 -81q54 -72 54 -191q0 -118 -54 -191q-62 -80 -175 -80q-146 0 -196 125v-317h-32v724zM101 258q0 -105 45 -169q52 -75 151 -75t152 75q45 64 45 169q0 104 -45 169q-53 75 -152 75q-100 0 -151 -75q-45 -65 -45 -169z" />
    <glyph glyph-name="q" unicode="q" horiz-adv-x="572" 
d="M471 112q-50 -125 -196 -125q-113 0 -175 80q-54 73 -54 191q0 119 54 191q60 81 175 81q145 0 196 -130v119h31v-724h-31v317zM78 258q0 -105 45 -169q52 -75 152 -75t151 75q45 64 45 169q0 104 -45 169q-51 75 -151 75t-151 -75q-46 -64 -46 -169z" />
    <glyph glyph-name="r" unicode="r" horiz-adv-x="263" 
d="M69 519h32v-86q40 85 172 84l-20 -28q-37 0 -53 -6q-34 -10 -70 -51q-29 -35 -29 -87v-345h-32v519z" />
    <glyph glyph-name="s" unicode="s" horiz-adv-x="481" 
d="M81 154q25 -138 166 -138q63 0 104 27q49 31 49 91q0 72 -103 100q-3 1 -9.5 3t-17.5 4q-125 32 -164 62q-42 33 -42 90q0 68 58 105q50 32 120 32q72 0 119 -38q49 -41 56 -111h-31q-16 121 -148 121q-55 0 -94 -24q-47 -29 -47 -81q0 -78 159 -118q1 -1 10 -3
q84 -21 114 -43q53 -35 53 -100q0 -70 -59 -111q-53 -35 -126 -35q-83 0 -136 41q-54 43 -62 126h31v0z" />
    <glyph glyph-name="t" unicode="t" horiz-adv-x="187" 
d="M79 661v-142h104v-28h-104v-491h-32v661h32z" />
    <glyph glyph-name="u" unicode="u" 
d="M451 0h-31v81q-49 -94 -175 -94q-178 0 -178 185v347h31v-337q0 -85 31 -122q34 -45 115 -45q147 0 171 132q2 15 3.5 37.5t1.5 53.5v281h31v-519z" />
    <glyph glyph-name="v" unicode="v" horiz-adv-x="444" 
d="M8 519h33l178 -482l185 482h33l-200 -519h-36z" />
    <glyph glyph-name="w" unicode="w" horiz-adv-x="669" 
d="M13 519h33l148 -470l124 363h29l127 -363l150 470h32l-166 -519h-32l-126 355l-122 -355h-32z" />
    <glyph glyph-name="x" unicode="x" horiz-adv-x="410" 
d="M-4 0l189 268l-182 251h38l164 -225l160 225h37l-179 -251l192 -268h-37l-174 243l-172 -243h-36z" />
    <glyph glyph-name="y" unicode="y" 
d="M444 -59q-20 -84 -96 -121q-45 -22 -112 -22q-76 0 -122 37q-51 40 -52 113h27q3 -63 49 -94q41 -29 105 -29q115 0 160 87q5 10 9.5 22.5t6.5 27.5q3 18 3 54v80q-50 -96 -175 -96q-178 0 -178 186v344h32v-334q0 -83 30 -122q34 -45 115 -45q147 0 171 133
q2 14 3.5 36.5t1.5 53.5v278h32v-519q-1 -16 -3 -33t-7 -37z" />
    <glyph glyph-name="z" unicode="z" horiz-adv-x="437" 
d="M17 37l358 451h-338v31h372v-37l-358 -451h369v-31h-403v37z" />
    <glyph glyph-name="braceleft" unicode="{" horiz-adv-x="500" 
d="M366 687q-3 1 -10 1h-10q-93 0 -93 -83q0 -44 24 -129q24 -84 24 -128q0 -77 -71 -89q70 -16 70 -87q0 -40 -26 -126t-26 -125q0 -89 118 -88v-34q-157 -3 -157 110q0 41 26 128q26 89 26 128q0 81 -105 77l-22 -1v36q126 -8 126 86q0 47 -25 126q-24 84 -24 127
q0 105 139 105h16v-34z" />
    <glyph glyph-name="bar" unicode="|" horiz-adv-x="500" 
d="M268 764v-999h-36v999h36z" />
    <glyph glyph-name="braceright" unicode="}" horiz-adv-x="500" 
d="M105 721q138 0 138 -105q0 -43 -24 -127q-24 -83 -24 -126q0 -94 125 -86v-36l-22 1q-104 5 -104 -77q0 -46 25 -128q26 -87 26 -128q0 -113 -156 -110v34q118 -1 118 88q0 42 -27 125q-26 86 -26 126q0 71 70 87q-70 12 -70 89q0 44 24 128q24 85 24 129q0 83 -93 83
h-10q-7 0 -10 -1v34h16z" />
    <glyph glyph-name="asciitilde" unicode="~" horiz-adv-x="602" 
d="M536 322q-73 -73 -135 -73q-29 0 -101 35q-68 35 -99 35q-56 0 -135 -81v37q71 74 135 74q32 0 100 -36q68 -35 100 -35q56 0 135 79v-35z" />
    <glyph glyph-name="quotesinglbase" horiz-adv-x="237" 
d="M126 105v2h35l-56 -220h-34l31 122q-34 0 -34 36q0 10 5 21t13 19.5t18 14t21 5.5h1z" />
    <glyph glyph-name="quotesinglbase" unicode="&#x201a;" horiz-adv-x="237" 
d="M126 105v2h35l-56 -220h-34l31 122q-34 0 -34 36q0 10 5 21t13 19.5t18 14t21 5.5h1z" />
    <glyph glyph-name="florin" horiz-adv-x="244" 
d="M117 519l102 2l-5 -29l-102 -2l-82 -490q-10 -63 -29 -88q-26 -37 -87 -38l-92 -2l4 26l87 2q47 1 67 31q12 19 20 69l100 597q10 64 29 89q26 37 87 38l93 2l-5 -27l-86 -1q-48 -1 -67 -31q-12 -20 -22 -74z" />
    <glyph glyph-name="florin" unicode="&#x192;" horiz-adv-x="244" 
d="M117 519l102 2l-5 -29l-102 -2l-82 -490q-10 -63 -29 -88q-26 -37 -87 -38l-92 -2l4 26l87 2q47 1 67 31q12 19 20 69l100 597q10 64 29 89q26 37 87 38l93 2l-5 -27l-86 -1q-48 -1 -67 -31q-12 -20 -22 -74z" />
    <glyph glyph-name="quotedblbase" horiz-adv-x="381" 
d="M264 106l34 -1l-55 -220l-35 1l31 121q-33 0 -33 37q0 22 17.5 41t39.5 19zM117 104v2l34 -1l-55 -220l-34 1l31 121h-1q-33 0 -33 37q0 22 17.5 41t39.5 19h1z" />
    <glyph glyph-name="quotedblbase" unicode="&#x201e;" horiz-adv-x="381" 
d="M264 106l34 -1l-55 -220l-35 1l31 121q-33 0 -33 37q0 22 17.5 41t39.5 19zM117 104v2l34 -1l-55 -220l-34 1l31 121h-1q-33 0 -33 37q0 22 17.5 41t39.5 19h1z" />
    <glyph glyph-name="ellipsis" unicode="&#x85;" horiz-adv-x="1000" 
d="M145 41q0 29 9 40v1q1 0 1 1q5 4 12 4h2q7 -2 8 -3v-1h1q9 -9 10 -27q0 -2 0.5 -3t0.5 -3v-9v-9q-2 -21 -7 -30q-6 -8 -15 -8q-12 0 -16 10q-2 6 -2 5l-3 10q0 3 -0.5 6t-0.5 7v9zM812 56q0 1 0.5 1.5t0.5 1.5q0 2 0.5 4t0.5 4q1 1 1 2q0 2 1 3q0 1 1 2q4 10 11 12
q1 1 4 1h2q4 0 5 -1q-1 0 5 -2l3 -3l2 -2v-1l3 -6q0 -2 0.5 -2.5t0.5 -2.5q1 -1 1 -4t1 -4q0 -4 0.5 -8.5t0.5 -9.5v-9q0 -3 -0.5 -5.5t-0.5 -4.5l-3 -13l-2 -4t-3 -5l-3 -3q-5 -3 -10 -3h-2q-7 2 -8 3q-5 3 -6 7q-1 1 -1 3l-3 7v3l-1 2q0 2 -0.5 3.5t-0.5 3.5v6v9v15z
M478 41q0 15 1 18q0 2 0.5 4t0.5 4l3 7q0 1 0.5 2t0.5 2q1 0 1 1l2 2v1q1 0 1 1q2 1 3 2t3 1q1 1 4 1h2q4 0 5 -1q-1 0 5 -2l3 -3q1 -1 1 -2l1 -1q2 -4 3 -7.5t2 -7.5q0 -1 0.5 -2t0.5 -2q0 -2 0.5 -4.5t0.5 -4.5v-9q0 -21 -4 -32q-2 -5 -4 -7.5t-4 -4.5q-5 -3 -10 -3h-2
q-3 0 -4 1q-5 1 -10 9q-1 1 -1 3q-1 1 -1 2q-1 1 -1 2q0 2 -1 3q0 4 -1 5q-1 3 -1 10v12z" />
    <glyph glyph-name="ellipsis" unicode="&#x2026;" horiz-adv-x="1000" 
d="M145 41q0 29 9 40v1q1 0 1 1q5 4 12 4h2q7 -2 8 -3v-1h1q9 -9 10 -27q0 -2 0.5 -3t0.5 -3v-9v-9q-2 -21 -7 -30q-6 -8 -15 -8q-12 0 -16 10q-2 6 -2 5l-3 10q0 3 -0.5 6t-0.5 7v9zM812 56q0 1 0.5 1.5t0.5 1.5q0 2 0.5 4t0.5 4q1 1 1 2q0 2 1 3q0 1 1 2q4 10 11 12
q1 1 4 1h2q4 0 5 -1q-1 0 5 -2l3 -3l2 -2v-1l3 -6q0 -2 0.5 -2.5t0.5 -2.5q1 -1 1 -4t1 -4q0 -4 0.5 -8.5t0.5 -9.5v-9q0 -3 -0.5 -5.5t-0.5 -4.5l-3 -13l-2 -4t-3 -5l-3 -3q-5 -3 -10 -3h-2q-7 2 -8 3q-5 3 -6 7q-1 1 -1 3l-3 7v3l-1 2q0 2 -0.5 3.5t-0.5 3.5v6v9v15z
M478 41q0 15 1 18q0 2 0.5 4t0.5 4l3 7q0 1 0.5 2t0.5 2q1 0 1 1l2 2v1q1 0 1 1q2 1 3 2t3 1q1 1 4 1h2q4 0 5 -1q-1 0 5 -2l3 -3q1 -1 1 -2l1 -1q2 -4 3 -7.5t2 -7.5q0 -1 0.5 -2t0.5 -2q0 -2 0.5 -4.5t0.5 -4.5v-9q0 -21 -4 -32q-2 -5 -4 -7.5t-4 -4.5q-5 -3 -10 -3h-2
q-3 0 -4 1q-5 1 -10 9q-1 1 -1 3q-1 1 -1 2q-1 1 -1 2q0 2 -1 3q0 4 -1 5q-1 3 -1 10v12z" />
    <glyph glyph-name="dagger" horiz-adv-x="500" 
d="M234 526h-147v29h147v164h31v-164h148v-29h-148v-630h-31v630z" />
    <glyph glyph-name="dagger" unicode="&#x2020;" horiz-adv-x="500" 
d="M234 526h-147v29h147v164h31v-164h148v-29h-148v-630h-31v630z" />
    <glyph glyph-name="daggerdbl" horiz-adv-x="500" 
d="M413 87v-29h-148v-162h-31v162h-147v29h147v439h-147v29h147v164h31v-164h148v-29h-148v-439h148z" />
    <glyph glyph-name="daggerdbl" unicode="&#x2021;" horiz-adv-x="500" 
d="M413 87v-29h-148v-162h-31v162h-147v29h147v439h-147v29h147v164h31v-164h148v-29h-148v-439h148z" />
    <glyph glyph-name="circumflex" horiz-adv-x="500" 
d="M226 744h48l99 -160l-36 -4l-87 136l-86 -132h-38z" />
    <glyph glyph-name="circumflex" unicode="&#x2c6;" horiz-adv-x="500" 
d="M226 744h48l99 -160l-36 -4l-87 136l-86 -132h-38z" />
    <glyph glyph-name="perthousand" horiz-adv-x="1028" 
d="M406 175q0 64 35 117q41 56 103 56t103 -57q36 -51 36 -116q0 -66 -35 -116q-41 -56 -104 -56t-103 57q-35 50 -35 115zM723 175q0 66 36 117q41 56 103 56q61 0 102 -57q36 -51 36 -116q0 -66 -35 -116q-39 -56 -103 -56q-63 0 -103 57q-36 49 -36 115zM45 547
q0 66 36 116q41 56 103 56q61 0 102 -56q36 -51 36 -116q0 -66 -35 -116q-39 -56 -103 -56q-62 0 -103 56q-36 49 -36 116zM76 547q0 -54 27 -94q30 -48 81 -48q48 0 80 48q27 40 27 94q0 53 -27 94q-32 47 -80 47q-51 0 -81 -47q-27 -41 -27 -94zM754 175q0 -54 27 -94
q30 -47 81 -47q50 0 80 48q27 40 27 93t-27 94q-30 47 -80 47q-51 0 -81 -46q-27 -41 -27 -95zM437 175q0 -53 26 -94q32 -47 81 -47t81 48q26 41 26 93q0 53 -26 94q-32 47 -81 47q-50 0 -81 -46q-26 -41 -26 -95zM550 752l-346 -752h-35l347 752h34z" />
    <glyph glyph-name="perthousand" unicode="&#x2030;" horiz-adv-x="1028" 
d="M406 175q0 64 35 117q41 56 103 56t103 -57q36 -51 36 -116q0 -66 -35 -116q-41 -56 -104 -56t-103 57q-35 50 -35 115zM723 175q0 66 36 117q41 56 103 56q61 0 102 -57q36 -51 36 -116q0 -66 -35 -116q-39 -56 -103 -56q-63 0 -103 57q-36 49 -36 115zM45 547
q0 66 36 116q41 56 103 56q61 0 102 -56q36 -51 36 -116q0 -66 -35 -116q-39 -56 -103 -56q-62 0 -103 56q-36 49 -36 116zM76 547q0 -54 27 -94q30 -48 81 -48q48 0 80 48q27 40 27 94q0 53 -27 94q-32 47 -80 47q-51 0 -81 -47q-27 -41 -27 -94zM754 175q0 -54 27 -94
q30 -47 81 -47q50 0 80 48q27 40 27 93t-27 94q-30 47 -80 47q-51 0 -81 -46q-27 -41 -27 -95zM437 175q0 -53 26 -94q32 -47 81 -47t81 48q26 41 26 93q0 53 -26 94q-32 47 -81 47q-50 0 -81 -46q-26 -41 -26 -95zM550 752l-346 -752h-35l347 752h34z" />
    <glyph glyph-name="guilsinglleft" horiz-adv-x="248" 
d="M178 102l-125 154l125 154l27 -19l-109 -135l107 -135z" />
    <glyph glyph-name="guilsinglleft" unicode="&#x2039;" horiz-adv-x="248" 
d="M178 102l-125 154l125 154l27 -19l-109 -135l107 -135z" />
    <glyph glyph-name="OE" horiz-adv-x="957" 
d="M478 720h439v-32h-372q39 -26 68 -65q69 -90 75 -232h145v-32h-144q0 -164 -76 -264q-29 -38 -65 -62h379v-33h-446q-50 -15 -111 -15q-160 0 -243 110q-75 99 -75 264q0 163 75 264q84 112 243 112q61 0 108 -16v1zM478 687q-48 18 -108 18q-143 0 -218 -105
q-65 -92 -65 -241t65 -241q74 -104 218 -104q60 0 108 18v655zM512 359v-310q44 26 76 69q66 91 66 241h-142zM512 391h141q-7 127 -65 209q-16 23 -35 40t-41 30v-279z" />
    <glyph glyph-name="OE" unicode="&#x152;" horiz-adv-x="957" 
d="M478 720h439v-32h-372q39 -26 68 -65q69 -90 75 -232h145v-32h-144q0 -164 -76 -264q-29 -38 -65 -62h379v-33h-446q-50 -15 -111 -15q-160 0 -243 110q-75 99 -75 264q0 163 75 264q84 112 243 112q61 0 108 -16v1zM478 687q-48 18 -108 18q-143 0 -218 -105
q-65 -92 -65 -241t65 -241q74 -104 218 -104q60 0 108 18v655zM512 359v-310q44 26 76 69q66 91 66 241h-142zM512 391h141q-7 127 -65 209q-16 23 -35 40t-41 30v-279z" />
    <glyph glyph-name="quoteleft" horiz-adv-x="237" 
d="M118 506h-35l56 222l34 -1l-30 -123q33 0 33 -36q0 -22 -17.5 -41t-39.5 -19z" />
    <glyph glyph-name="quoteleft" unicode="&#x2018;" horiz-adv-x="237" 
d="M118 506h-35l56 222l34 -1l-30 -123q33 0 33 -36q0 -22 -17.5 -41t-39.5 -19z" />
    <glyph glyph-name="quoteright" horiz-adv-x="237" 
d="M142 728l34 -1l-55 -221h-35l31 123q-34 0 -34 37q0 22 18 40.5t40 18.5z" />
    <glyph glyph-name="quoteright" unicode="&#x2019;" horiz-adv-x="237" 
d="M142 728l34 -1l-55 -221h-35l31 123q-34 0 -34 37q0 22 18 40.5t40 18.5z" />
    <glyph glyph-name="quotedblleft" horiz-adv-x="354" 
d="M118 506h-35l56 222l34 -1l-30 -123q33 0 33 -36q0 -22 -17.5 -41t-39.5 -19zM265 508l-1 -2h-34l56 222l34 -1l-31 -123h1q32 0 32 -36q0 -22 -17 -41t-39 -19h-1z" />
    <glyph glyph-name="quotedblleft" unicode="&#x201c;" horiz-adv-x="354" 
d="M118 506h-35l56 222l34 -1l-30 -123q33 0 33 -36q0 -22 -17.5 -41t-39.5 -19zM265 508l-1 -2h-34l56 222l34 -1l-31 -123h1q32 0 32 -36q0 -22 -17 -41t-39 -19h-1z" />
    <glyph glyph-name="quotedblright" horiz-adv-x="354" 
d="M142 728l34 -1l-55 -221h-35l31 123q-34 0 -34 37q0 22 18 40.5t40 18.5zM288 725v3l34 -1l-55 -221h-34l31 123h-1q-33 0 -33 37q0 22 17.5 40.5t39.5 18.5h1z" />
    <glyph glyph-name="quotedblright" unicode="&#x201d;" horiz-adv-x="354" 
d="M142 728l34 -1l-55 -221h-35l31 123q-34 0 -34 37q0 22 18 40.5t40 18.5zM288 725v3l34 -1l-55 -221h-34l31 123h-1q-33 0 -33 37q0 22 17.5 40.5t39.5 18.5h1z" />
    <glyph glyph-name="bullet" horiz-adv-x="590" 
d="M439 372q0 -62 -42 -104q-41 -41 -103 -41q-63 0 -104 41q-40 40 -40 104q0 31 11 57.5t30 46t45.5 30t58.5 10.5q62 0 103 -41t41 -103zM327 372q0 33 -33 33t-33 -33q0 -32 33 -32t33 32z" />
    <glyph glyph-name="bullet" unicode="&#x2022;" horiz-adv-x="590" 
d="M439 372q0 -62 -42 -104q-41 -41 -103 -41q-63 0 -104 41q-40 40 -40 104q0 31 11 57.5t30 46t45.5 30t58.5 10.5q62 0 103 -41t41 -103zM327 372q0 33 -33 33t-33 -33q0 -32 33 -32t33 32z" />
    <glyph glyph-name="endash" horiz-adv-x="500" 
d="M0 269h500v-21h-500v21z" />
    <glyph glyph-name="endash" unicode="&#x2013;" horiz-adv-x="500" 
d="M0 269h500v-21h-500v21z" />
    <glyph glyph-name="emdash" horiz-adv-x="1000" 
d="M1000 269v-21h-1000v21h1000z" />
    <glyph glyph-name="emdash" unicode="&#x2014;" horiz-adv-x="1000" 
d="M1000 269v-21h-1000v21h1000z" />
    <glyph glyph-name="tilde" horiz-adv-x="500" 
d="M376 681q-13 -23 -20 -36.5t-9 -15.5q-16 -21 -43 -22q-18 0 -59 35q-41 37 -49 35q-26 -2 -56 -59l-16 16q38 74 72 74q16 0 54 -36q41 -35 54 -35q25 0 40 27q4 10 8 19t9 19z" />
    <glyph glyph-name="tilde" unicode="&#x2dc;" horiz-adv-x="500" 
d="M376 681q-13 -23 -20 -36.5t-9 -15.5q-16 -21 -43 -22q-18 0 -59 35q-41 37 -49 35q-26 -2 -56 -59l-16 16q38 74 72 74q16 0 54 -36q41 -35 54 -35q25 0 40 27q4 10 8 19t9 19z" />
    <glyph glyph-name="trademark" horiz-adv-x="833" 
d="M447 709l88 -125l82 125h42v-257h-23v239l-97 -141l-7 -2l-104 143v-239h-24v257h43zM339 709v-20h-85v-237h-28v237h-87v20h200z" />
    <glyph glyph-name="trademark" unicode="&#x2122;" horiz-adv-x="833" 
d="M447 709l88 -125l82 125h42v-257h-23v239l-97 -141l-7 -2l-104 143v-239h-24v257h43zM339 709v-20h-85v-237h-28v237h-87v20h200z" />
    <glyph glyph-name="guilsinglright" horiz-adv-x="248" 
d="M162 256l-109 135l27 19l125 -154l-125 -154l-24 19z" />
    <glyph glyph-name="guilsinglright" unicode="&#x203a;" horiz-adv-x="248" 
d="M162 256l-109 135l27 19l125 -154l-125 -154l-24 19z" />
    <glyph glyph-name="oe" horiz-adv-x="825" 
d="M715 31q-59 -44 -134 -44q-95 0 -152 60q-59 -60 -157 -60q-114 0 -174 80q-54 73 -54 191t54 190q60 82 174 82q99 0 157 -61q57 61 152 61q107 0 166 -75q51 -68 51 -180v-19h-297q0 -112 -51 -184q49 -58 131 -58q127 0 170 118l26 -14q-19 -53 -62 -87zM410 71
q-50 74 -50 187q0 115 50 186q-51 58 -138 58q-100 0 -151 -75q-45 -65 -45 -169q0 -105 45 -169q52 -75 151 -75q87 0 138 57zM764 285q0 92 -43 150q-48 67 -135 67q-85 0 -135 -59q44 -64 49 -158h264zM394 256v-8q0 -88 37 -149q38 65 38 157h-75zM468 285
q-5 76 -37 131q-32 -53 -36 -131h73z" />
    <glyph glyph-name="oe" unicode="&#x153;" horiz-adv-x="825" 
d="M715 31q-59 -44 -134 -44q-95 0 -152 60q-59 -60 -157 -60q-114 0 -174 80q-54 73 -54 191t54 190q60 82 174 82q99 0 157 -61q57 61 152 61q107 0 166 -75q51 -68 51 -180v-19h-297q0 -112 -51 -184q49 -58 131 -58q127 0 170 118l26 -14q-19 -53 -62 -87zM410 71
q-50 74 -50 187q0 115 50 186q-51 58 -138 58q-100 0 -151 -75q-45 -65 -45 -169q0 -105 45 -169q52 -75 151 -75q87 0 138 57zM764 285q0 92 -43 150q-48 67 -135 67q-85 0 -135 -59q44 -64 49 -158h264zM394 256v-8q0 -88 37 -149q38 65 38 157h-75zM468 285
q-5 76 -37 131q-32 -53 -36 -131h73z" />
    <glyph glyph-name="Ydieresis" horiz-adv-x="530" 
d="M248 318l-247 401h38l227 -367l224 367h38l-247 -403v-316h-33v318zM321 868q0 46 22 46t22 -46q0 -48 -22 -48t-22 48zM167 866q0 47 21 47q22 0 22 -47q0 -48 -22 -48q-21 0 -21 48z" />
    <glyph glyph-name="Ydieresis" unicode="&#x178;" horiz-adv-x="530" 
d="M248 318l-247 401h38l227 -367l224 367h38l-247 -403v-316h-33v318zM321 868q0 46 22 46t22 -46q0 -48 -22 -48t-22 48zM167 866q0 47 21 47q22 0 22 -47q0 -48 -22 -48q-21 0 -21 48z" />
    <glyph glyph-name="nonbreakingspace" unicode="&#xa0;" 
 />
    <glyph glyph-name="exclamdown" unicode="&#xa1;" horiz-adv-x="307" 
d="M172 -121h-42l9 537h24zM129 553q0 47 21 47q22 0 22 -47q0 -48 -22 -48q-21 0 -21 48z" />
    <glyph glyph-name="cent" unicode="&#xa2;" 
d="M328 159v-137q32 11 60 34q47 44 56 111h30q-9 -84 -64 -132q-35 -32 -82 -42v-85h-36v80q-3 -1 -11 -1h-12h-20v-79h-36v85q-64 14 -108 67q-61 73 -61 198q0 126 61 199q43 51 108 66v109h36v-103q3 1 11 1h12h10q7 0 10 -1v103h36v-108q45 -10 78 -37q52 -44 63 -120
h-32q-11 61 -55 99q-22 19 -54 28v-128h-36v135q-3 1 -10 1h-10h-12q-8 0 -11 -1v-135h-36v128q-50 -15 -84 -57q-53 -65 -53 -179q0 -113 53 -178q34 -43 84 -58v137h36v-144q3 -1 11 -1h12h10q7 0 10 1v144h36z" />
    <glyph glyph-name="sterling" unicode="&#xa3;" horiz-adv-x="681" 
d="M131 445q5 51 16 93t28 76q55 114 167 114q75 0 128 -59q36 -41 53 -106l-30 -21q-35 147 -156 147q-90 0 -136 -105q-27 -58 -36 -139h271l-10 -30h-263q-1 -14 -1.5 -28.5t-0.5 -28.5v-37h231l-10 -31h-219q8 -93 36 -157q46 -103 135 -103q136 0 165 173l28 -22
q-14 -76 -52 -123q-53 -65 -138 -65q-108 0 -163 112q-37 75 -45 185h-87l9 31h76v37v28v15t1 14h-72l10 30h65z" />
    <glyph glyph-name="currency" unicode="&#xa4;" horiz-adv-x="606" 
d="M215 601q41 32 89 32t89 -32l25 27l27 -27l-27 -27q30 -42 30 -93t-29 -92l24 -22l-26 -29l-24 24q-40 -31 -89 -31t-89 31l-27 -29l-26 28l26 28q-29 44 -29 92q0 51 30 93l-30 32l26 28zM411 497q-4 38 -29.5 65t-62.5 32v-97h92zM289 594q-37 -5 -62.5 -32.5
t-29.5 -64.5h92v97zM197 466q5 -37 30 -64t62 -32v96h-92zM319 370q36 5 61.5 32t30.5 64h-92v-96z" />
    <glyph glyph-name="yen" unicode="&#xa5;" horiz-adv-x="530" 
d="M234 340l-233 379h38l227 -367l224 367h38l-233 -379h171v-31h-185v-142h185v-31h-185v-136h-33v136h-186v31h186v142h-186v31h172z" />
    <glyph glyph-name="section" unicode="&#xa7;" horiz-adv-x="500" 
d="M113 71v-13q0 -126 126 -126q58 0 93 27q38 30 38 86q0 67 -81 108l-131 64q-103 49 -103 137q0 106 123 124q-77 38 -77 117q0 64 44 103q40 37 106 37q155 0 155 -165h-31q0 135 -120 135q-52 0 -86 -28q-36 -32 -36 -81q0 -44 32 -74q11 -10 29 -21t43 -22l77 -36
q130 -61 130 -154q0 -47 -34 -81q-37 -40 -92 -40h-9q-6 0 -9 1q45 -13 72.5 -48t27.5 -80q0 -65 -47 -103q-44 -35 -111 -35q-75 0 -115 36q-44 39 -44 111q0 18 1 21h29zM273 193q54 1 92 19q49 24 49 72q0 84 -105 128l-104 45q-50 -5 -81 -27q-38 -27 -38 -72
q0 -74 80 -113z" />
    <glyph glyph-name="dieresis" unicode="&#xa8;" horiz-adv-x="500" 
d="M306 663q0 46 22 46t22 -46q0 -48 -22 -48t-22 48zM152 661q0 47 21 47q22 0 22 -47q0 -48 -22 -48q-21 0 -21 48z" />
    <glyph glyph-name="copyright" unicode="&#xa9;" horiz-adv-x="833" 
d="M666 351q0 -105 -73 -177q-72 -72 -177 -72q-104 0 -177 72q-72 73 -72 177t73 176q73 73 176 73q104 0 178 -71q72 -71 72 -178zM198 351q0 -67 36.5 -121t99.5 -81q43 -17 82 -17q90 0 154 64q65 65 65 155q0 93 -63 155q-65 62 -156 62q-90 0 -154 -64
q-64 -63 -64 -153zM418 172q-77 0 -115 56q-33 48 -33 128q0 83 34 129q39 57 116 57q99 0 130 -88l-29 -16q-24 74 -103 74q-60 0 -91 -51q-25 -40 -25 -105t24 -105q30 -49 90 -49q88 0 108 86l29 -15q-10 -43 -39 -67q-37 -34 -96 -34z" />
    <glyph glyph-name="ordfeminine" unicode="&#xaa;" horiz-adv-x="380" 
d="M190 353q-78 0 -119 56q-36 49 -36 130q0 80 36 130q40 55 119 55q92 0 129 -76v69h26v-355h-26v65q-36 -74 -129 -74zM190 378q66 0 100 49q29 44 29 112q0 67 -29 111q-35 50 -100 50q-64 0 -99 -50q-29 -44 -29 -111q0 -68 29 -112q34 -49 99 -49z" />
    <glyph glyph-name="guillemotleft" unicode="&#xab;" horiz-adv-x="354" 
d="M300 102l-125 154l125 154l27 -19l-109 -135l107 -135zM178 102l-125 154l125 154l27 -19l-109 -135l107 -135z" />
    <glyph glyph-name="logicalnot" unicode="&#xac;" horiz-adv-x="703" 
d="M616 417v-162h-29v131h-463v31h492z" />
    <glyph glyph-name="registered" unicode="&#xae;" horiz-adv-x="708" 
d="M666 351q0 -104 -73 -177q-74 -72 -177 -72q-104 0 -177 72q-72 73 -72 177t73 176q73 73 176 73q107 0 178 -71q72 -71 72 -178zM198 351q0 -66 37.5 -120.5t98.5 -81.5q43 -17 82 -17q66 0 121 37q57 39 82 98q16 35 16 84q0 93 -63 155q-65 62 -156 62q-92 0 -155 -63
q-63 -62 -63 -154zM313 179v355h119q123 0 123 -97q0 -59 -46 -83q28 -16 33 -58v-117h-34v83q0 56 -23 70q-13 7 -47 7h-93v-160h-32zM523 436q0 55 -50 64q-14 3 -41 3h-87v-134h95q83 0 83 67z" />
    <glyph glyph-name="degree" unicode="&#xb0;" horiz-adv-x="329" 
d="M165 707q55 0 93 -38t38 -94t-38 -94q-37 -37 -94 -37q-29 0 -53 10t-41.5 27t-27 41t-9.5 53q0 28 10 52.5t27.5 42t41.5 27.5t53 10zM165 682q-46 0 -76.5 -29.5t-30.5 -77.5q0 -46 30.5 -76.5t76.5 -30.5t76 30.5t30 76.5q0 23 -8 42.5t-22.5 34t-34 22.5t-41.5 8z
" />
    <glyph glyph-name="plusminus" unicode="&#xb1;" horiz-adv-x="614" 
d="M325 562v-174h179v-31h-179v-174h-30v174h-185v31h185v174h30zM504 65v-31h-394v31h394z" />
    <glyph glyph-name="acute" unicode="&#xb4;" horiz-adv-x="500" 
d="M296 744h53l-101 -160h-54z" />
    <glyph glyph-name="paragraph" unicode="&#xb6;" horiz-adv-x="500" 
d="M429 694v-815h-29v815h-56v-815h-30v503q-54 2 -94 9t-66 20q-84 40 -84 141q-2 94 86 137q66 33 166 33h108v-28h-1z" />
    <glyph glyph-name="cedilla" unicode="&#xb8;" horiz-adv-x="500" 
d="M233 -189h36q69 0 69 51q0 56 -79 56h-28v82h25v-58h12q98 0 98 -75q0 -83 -99 -83h-34v27z" />
    <glyph glyph-name="ordmasculine" unicode="&#xba;" horiz-adv-x="409" 
d="M33 537q0 86 42 136q45 54 129 54t129 -54q43 -49 43 -136t-43 -136q-45 -55 -129 -55t-129 55q-42 51 -42 136zM57 537q0 -73 35 -120q39 -51 112 -51t112 51q36 45 36 120t-36 120q-39 50 -112 50q-72 0 -111 -50q-36 -47 -36 -120z" />
    <glyph glyph-name="guillemotright" unicode="&#xbb;" horiz-adv-x="354" 
d="M162 256l-109 135l27 19l125 -154l-125 -154l-24 19zM284 256l-109 135l27 19l125 -154l-125 -154l-24 19z" />
    <glyph glyph-name="questiondown" unicode="&#xbf;" horiz-adv-x="463" 
d="M427 25q-11 -58 -47 -97q-56 -60 -154 -60q-85 0 -138 44q-58 46 -58 128q0 71 53 112q13 11 37.5 29.5t59.5 44.5q52 51 52 139q0 14 -1 28.5t-3 30.5h31q3 -29 3 -55q0 -101 -51 -159q-3 -3 -95 -72q-52 -37 -52 -94q0 -144 167 -144q141 0 165 135zM268 554
q0 -47 -22 -47t-22 47t22 47t22 -47z" />
    <glyph glyph-name="Agrave" unicode="&#xc0;" horiz-adv-x="574" 
d="M272 719h38l273 -719h-33l-93 245h-335l-94 -245h-33zM445 275l-154 405l-157 -405h311zM301 789l-102 160h53l102 -160h-53z" />
    <glyph glyph-name="Aacute" unicode="&#xc1;" horiz-adv-x="574" 
d="M272 719h38l273 -719h-33l-93 245h-335l-94 -245h-33zM445 275l-154 405l-157 -405h311zM344 949h53l-101 -160h-54z" />
    <glyph glyph-name="Acircumflex" unicode="&#xc2;" horiz-adv-x="574" 
d="M272 719h38l273 -719h-33l-93 245h-335l-94 -245h-33zM445 275l-154 405l-157 -405h311zM274 949h48l99 -160l-36 -4l-87 136l-86 -132h-38z" />
    <glyph glyph-name="Atilde" unicode="&#xc3;" horiz-adv-x="574" 
d="M272 719h38l273 -719h-33l-93 245h-335l-94 -245h-33zM445 275l-154 405l-157 -405h311zM424 886q-13 -23 -20 -36.5t-9 -15.5q-16 -21 -43 -22q-18 0 -59 35q-41 37 -49 35q-26 -2 -56 -59l-16 16q38 74 72 74q16 0 54 -36q41 -35 54 -35q25 0 40 27q4 10 8 19t9 19z
" />
    <glyph glyph-name="Adieresis" unicode="&#xc4;" horiz-adv-x="574" 
d="M272 719h38l273 -719h-33l-93 245h-335l-94 -245h-33zM445 275l-154 405l-157 -405h311zM354 868q0 46 22 46t22 -46q0 -48 -22 -48t-22 48zM200 866q0 47 21 47q22 0 22 -47q0 -48 -22 -48q-21 0 -21 48z" />
    <glyph glyph-name="Aring" unicode="&#xc5;" horiz-adv-x="574" 
d="M272 719h38l273 -719h-33l-93 245h-335l-94 -245h-33zM445 275l-154 405l-157 -405h311zM181 853q0 48 31 79t79 31t78.5 -31t30.5 -79t-30.5 -78.5t-78.5 -30.5t-79 30.5t-31 78.5zM209 854q0 -35 23.5 -58t58.5 -23t58 23t23 58t-23 58t-58 23t-58.5 -23t-23.5 -58z
" />
    <glyph glyph-name="AE" unicode="&#xc6;" horiz-adv-x="804" 
d="M196 241l-111 -241h-36l331 719h365v-30h-277v-300h242v-30h-242v-328h287v-31h-319v241h-240zM436 689h-34l-192 -418h226v418z" />
    <glyph glyph-name="Ccedilla" unicode="&#xc7;" horiz-adv-x="681" 
d="M618 173q-19 -73 -74 -122q-74 -65 -194 -65q-154 0 -232 113q-67 97 -67 259t69 263q79 114 236 114q107 0 181 -59q53 -42 75 -103l-31 -16q-49 148 -231 148q-135 0 -205 -111q-59 -95 -59 -236q0 -143 57 -234q68 -110 202 -110q108 0 175 58q52 45 69 116zM335 -189
h36q69 0 69 51q0 56 -79 56h-28v82h25v-58h12q98 0 98 -75q0 -83 -99 -83h-34v27z" />
    <glyph glyph-name="Egrave" unicode="&#xc8;" horiz-adv-x="567" 
d="M82 719h439v-32h-405v-297h321v-31h-321v-327h415v-32h-449v719zM311 789l-102 160h53l102 -160h-53z" />
    <glyph glyph-name="Eacute" unicode="&#xc9;" horiz-adv-x="567" 
d="M82 719h439v-32h-405v-297h321v-31h-321v-327h415v-32h-449v719zM354 949h53l-101 -160h-54z" />
    <glyph glyph-name="Ecircumflex" unicode="&#xca;" horiz-adv-x="567" 
d="M82 719h439v-32h-405v-297h321v-31h-321v-327h415v-32h-449v719zM284 949h48l99 -160l-36 -4l-87 136l-86 -132h-38z" />
    <glyph glyph-name="Edieresis" unicode="&#xcb;" horiz-adv-x="567" 
d="M82 719h439v-32h-405v-297h321v-31h-321v-327h415v-32h-449v719zM364 868q0 46 22 46t22 -46q0 -48 -22 -48t-22 48zM210 866q0 47 21 47q22 0 22 -47q0 -48 -22 -48q-21 0 -21 48z" />
    <glyph glyph-name="Igrave" unicode="&#xcc;" horiz-adv-x="207" 
d="M87 719h33v-719h-33v719zM108 789l-102 160h53l102 -160h-53z" />
    <glyph glyph-name="Iacute" unicode="&#xcd;" horiz-adv-x="207" 
d="M87 719h33v-719h-33v719zM151 949h53l-101 -160h-54z" />
    <glyph glyph-name="Icircumflex" unicode="&#xce;" horiz-adv-x="207" 
d="M87 719h33v-719h-33v719zM81 949h48l99 -160l-36 -4l-87 136l-86 -132h-38z" />
    <glyph glyph-name="Idieresis" unicode="&#xcf;" horiz-adv-x="207" 
d="M87 719h33v-719h-33v719zM161 868q0 46 22 46t22 -46q0 -48 -22 -48t-22 48zM7 866q0 47 21 47q22 0 22 -47q0 -48 -22 -48q-21 0 -21 48z" />
    <glyph glyph-name="Ntilde" unicode="&#xd1;" horiz-adv-x="682" 
d="M82 719h34l451 -662v662h33v-719h-33l-452 661v-661h-33v719zM467 886q-13 -23 -20 -36.5t-9 -15.5q-16 -21 -43 -22q-18 0 -59 35q-41 37 -49 35q-26 -2 -56 -59l-16 16q38 74 72 74q16 0 54 -36q41 -35 54 -35q25 0 40 27q4 10 8 19t9 19z" />
    <glyph glyph-name="Ograve" unicode="&#xd2;" horiz-adv-x="741" 
d="M52 359q0 163 75 264q84 112 243 112q160 0 244 -111q75 -101 75 -265q0 -165 -75 -264q-84 -110 -244 -110t-243 110q-75 99 -75 264zM87 359q0 -149 65 -241q74 -104 218 -104q145 0 219 104q65 92 65 241t-66 241q-75 105 -218 105t-218 -105q-65 -92 -65 -241z
M374 789l-102 160h53l102 -160h-53z" />
    <glyph glyph-name="Oacute" unicode="&#xd3;" horiz-adv-x="741" 
d="M52 359q0 163 75 264q84 112 243 112q160 0 244 -111q75 -101 75 -265q0 -165 -75 -264q-84 -110 -244 -110t-243 110q-75 99 -75 264zM87 359q0 -149 65 -241q74 -104 218 -104q145 0 219 104q65 92 65 241t-66 241q-75 105 -218 105t-218 -105q-65 -92 -65 -241z
M417 949h53l-101 -160h-54z" />
    <glyph glyph-name="Ocircumflex" unicode="&#xd4;" horiz-adv-x="741" 
d="M52 359q0 163 75 264q84 112 243 112q160 0 244 -111q75 -101 75 -265q0 -165 -75 -264q-84 -110 -244 -110t-243 110q-75 99 -75 264zM87 359q0 -149 65 -241q74 -104 218 -104q145 0 219 104q65 92 65 241t-66 241q-75 105 -218 105t-218 -105q-65 -92 -65 -241z
M347 949h48l99 -160l-36 -4l-87 136l-86 -132h-38z" />
    <glyph glyph-name="Otilde" unicode="&#xd5;" horiz-adv-x="741" 
d="M52 359q0 163 75 264q84 112 243 112q160 0 244 -111q75 -101 75 -265q0 -165 -75 -264q-84 -110 -244 -110t-243 110q-75 99 -75 264zM87 359q0 -149 65 -241q74 -104 218 -104q145 0 219 104q65 92 65 241t-66 241q-75 105 -218 105t-218 -105q-65 -92 -65 -241z
M497 886q-13 -23 -20 -36.5t-9 -15.5q-16 -21 -43 -22q-18 0 -59 35q-41 37 -49 35q-26 -2 -56 -59l-16 16q38 74 72 74q16 0 54 -36q41 -35 54 -35q25 0 40 27q4 10 8 19t9 19z" />
    <glyph glyph-name="Odieresis" unicode="&#xd6;" horiz-adv-x="741" 
d="M52 359q0 163 75 264q84 112 243 112q160 0 244 -111q75 -101 75 -265q0 -165 -75 -264q-84 -110 -244 -110t-243 110q-75 99 -75 264zM87 359q0 -149 65 -241q74 -104 218 -104q145 0 219 104q65 92 65 241t-66 241q-75 105 -218 105t-218 -105q-65 -92 -65 -241z
M427 868q0 46 22 46t22 -46q0 -48 -22 -48t-22 48zM273 866q0 47 21 47q22 0 22 -47q0 -48 -22 -48q-21 0 -21 48z" />
    <glyph glyph-name="Oslash" unicode="&#xd8;" horiz-adv-x="741" 
d="M126 97q-74 104 -74 262q0 168 74 266q84 109 247 109q141 0 221 -86l87 100l23 -22l-89 -104q74 -107 74 -263q0 -169 -76 -266q-85 -109 -247 -109q-130 0 -221 90l-86 -102l-23 19zM369 704q-144 0 -218 -104q-64 -91 -64 -241q0 -143 62 -235q92 -110 222 -110
q143 0 217 105q66 91 66 240q0 163 -84 261q-74 84 -201 84zM339 349q0 24 21 24t21 -24q0 -23 -21 -23t-21 23z" />
    <glyph glyph-name="Ugrave" unicode="&#xd9;" horiz-adv-x="671" 
d="M110 719v-452q0 -253 226 -253q115 0 173 70q53 65 53 183v452h33v-468q0 -125 -67 -195q-69 -71 -192 -71q-124 0 -192 71q-67 67 -67 195v468h33zM339 789l-102 160h53l102 -160h-53z" />
    <glyph glyph-name="Uacute" unicode="&#xda;" horiz-adv-x="671" 
d="M110 719v-452q0 -253 226 -253q115 0 173 70q53 65 53 183v452h33v-468q0 -125 -67 -195q-69 -71 -192 -71q-124 0 -192 71q-67 67 -67 195v468h33zM382 949h53l-101 -160h-54z" />
    <glyph glyph-name="Ucircumflex" unicode="&#xdb;" horiz-adv-x="671" 
d="M110 719v-452q0 -253 226 -253q115 0 173 70q53 65 53 183v452h33v-468q0 -125 -67 -195q-69 -71 -192 -71q-124 0 -192 71q-67 67 -67 195v468h33zM312 949h48l99 -160l-36 -4l-87 136l-86 -132h-38z" />
    <glyph glyph-name="Udieresis" unicode="&#xdc;" horiz-adv-x="671" 
d="M110 719v-452q0 -253 226 -253q115 0 173 70q53 65 53 183v452h33v-468q0 -125 -67 -195q-69 -71 -192 -71q-124 0 -192 71q-67 67 -67 195v468h33zM392 868q0 46 22 46t22 -46q0 -48 -22 -48t-22 48zM238 866q0 47 21 47q22 0 22 -47q0 -48 -22 -48q-21 0 -21 48z" />
    <glyph glyph-name="germandbls" unicode="&#xdf;" horiz-adv-x="488" 
d="M68 596q0 39 14 62q43 70 153 70q85 0 132 -46t47 -131q0 -113 -98 -149q69 -17 106 -84q34 -58 34 -134q0 -43 -17 -97q-17 -52 -45 -86q-51 -60 -151 -60l-86 -1v32h1q-1 1 83 1q88 0 136 63q44 59 44 147q0 90 -48 147q-51 58 -141 58h-61v28q11 0 32.5 -0.5
t32.5 -0.5q143 0 143 134q0 151 -143 151q-51 0 -88 -19q-47 -24 -45 -68q1 -18 0 -45q-1 -11 -1 -21.5v-19.5v-28v-499h-33z" />
    <glyph glyph-name="agrave" unicode="&#xe0;" horiz-adv-x="572" 
d="M471 112q-50 -125 -196 -125q-113 0 -175 80q-54 73 -54 191q0 119 54 191q60 81 175 81q145 0 196 -130v119h31v-519h-31v112zM78 258q0 -105 45 -169q52 -75 152 -75t151 75q45 64 45 169q0 104 -45 169q-51 75 -151 75t-151 -75q-46 -64 -46 -169zM248 584l-102 160
h53l102 -160h-53z" />
    <glyph glyph-name="aacute" unicode="&#xe1;" horiz-adv-x="572" 
d="M471 112q-50 -125 -196 -125q-113 0 -175 80q-54 73 -54 191q0 119 54 191q60 81 175 81q145 0 196 -130v119h31v-519h-31v112zM78 258q0 -105 45 -169q52 -75 152 -75t151 75q45 64 45 169q0 104 -45 169q-51 75 -151 75t-151 -75q-46 -64 -46 -169zM291 744h53
l-101 -160h-54z" />
    <glyph glyph-name="acircumflex" unicode="&#xe2;" horiz-adv-x="572" 
d="M471 112q-50 -125 -196 -125q-113 0 -175 80q-54 73 -54 191q0 119 54 191q60 81 175 81q145 0 196 -130v119h31v-519h-31v112zM78 258q0 -105 45 -169q52 -75 152 -75t151 75q45 64 45 169q0 104 -45 169q-51 75 -151 75t-151 -75q-46 -64 -46 -169zM245 744h48l99 -160
l-36 -4l-87 136l-86 -132h-38z" />
    <glyph glyph-name="atilde" unicode="&#xe3;" horiz-adv-x="572" 
d="M471 112q-50 -125 -196 -125q-113 0 -175 80q-54 73 -54 191q0 119 54 191q60 81 175 81q145 0 196 -130v119h31v-519h-31v112zM78 258q0 -105 45 -169q52 -75 152 -75t151 75q45 64 45 169q0 104 -45 169q-51 75 -151 75t-151 -75q-46 -64 -46 -169zM395 681
q-13 -23 -20 -36.5t-9 -15.5q-16 -21 -43 -22q-18 0 -59 35q-41 37 -49 35q-26 -2 -56 -59l-16 16q38 74 72 74q16 0 54 -36q41 -35 54 -35q25 0 40 27q4 10 8 19t9 19z" />
    <glyph glyph-name="adieresis" unicode="&#xe4;" horiz-adv-x="572" 
d="M471 112q-50 -125 -196 -125q-113 0 -175 80q-54 73 -54 191q0 119 54 191q60 81 175 81q145 0 196 -130v119h31v-519h-31v112zM78 258q0 -105 45 -169q52 -75 152 -75t151 75q45 64 45 169q0 104 -45 169q-51 75 -151 75t-151 -75q-46 -64 -46 -169zM325 663q0 46 22 46
t22 -46q0 -48 -22 -48t-22 48zM171 661q0 47 21 47q22 0 22 -47q0 -48 -22 -48q-21 0 -21 48z" />
    <glyph glyph-name="aring" unicode="&#xe5;" horiz-adv-x="572" 
d="M471 112q-50 -125 -196 -125q-113 0 -175 80q-54 73 -54 191q0 119 54 191q60 81 175 81q145 0 196 -130v119h31v-519h-31v112zM78 258q0 -105 45 -169q52 -75 152 -75t151 75q45 64 45 169q0 104 -45 169q-51 75 -151 75t-151 -75q-46 -64 -46 -169zM170 665
q0 48 30.5 78.5t78.5 30.5t78.5 -30.5t30.5 -78.5t-30.5 -78.5t-78.5 -30.5t-78.5 30.5t-30.5 78.5zM198 666q0 -35 23.5 -58.5t57.5 -23.5q35 0 58 23.5t23 58.5t-23 58t-58 23q-33 0 -57 -23.5t-24 -57.5z" />
    <glyph glyph-name="ae" unicode="&#xe6;" horiz-adv-x="944" 
d="M902 159q-17 -78 -73 -121.5t-135 -43.5q-111 0 -169 82q-16 22 -23 42v-118h-31v112q-50 -125 -196 -125q-113 0 -175 80q-54 73 -54 191q0 119 54 191q60 81 175 81q145 0 196 -130v119h31v-107q9 19 23 41q58 84 169 84q109 0 166 -76q52 -67 52 -179v-19h-405v-8
q0 -96 45 -160q51 -74 142 -74q66 0 113 37t64 101h31zM78 258q0 -105 45 -169q52 -75 152 -75t151 75q45 64 45 169q0 104 -45 169q-51 75 -151 75t-151 -75q-46 -64 -46 -169zM878 292q0 91 -43 149q-48 68 -135 68q-90 0 -141 -66q-45 -57 -51 -151h370z" />
    <glyph glyph-name="ccedilla" unicode="&#xe7;" horiz-adv-x="519" 
d="M466 125q-17 -56 -56 -91q-56 -47 -141 -47q-112 0 -172 82q-53 74 -53 189q0 118 54 190q60 82 174 82q141 0 185 -113l-27 -18q-14 39 -48 67q-45 36 -110 36q-100 0 -151 -75q-45 -65 -45 -169q0 -105 45 -169q52 -75 151 -75q61 0 106.5 33.5t60.5 93.5zM252 -189h36
q69 0 69 51q0 56 -79 56h-28v82h25v-58h12q98 0 98 -75q0 -83 -99 -83h-34v27z" />
    <glyph glyph-name="egrave" unicode="&#xe8;" horiz-adv-x="523" 
d="M397 31q-56 -44 -134 -44q-111 0 -169 82q-51 73 -51 189t51 188q58 84 169 84q109 0 166 -75q52 -67 52 -180v-19h-405v-8q0 -96 45 -160q51 -74 142 -74q126 0 171 118l26 -14q-20 -53 -63 -87zM447 285q0 92 -43 150q-48 67 -135 67q-90 0 -141 -65q-45 -58 -51 -152
h370zM269 584l-102 160h53l102 -160h-53z" />
    <glyph glyph-name="eacute" unicode="&#xe9;" horiz-adv-x="523" 
d="M397 31q-56 -44 -134 -44q-111 0 -169 82q-51 73 -51 189t51 188q58 84 169 84q109 0 166 -75q52 -67 52 -180v-19h-405v-8q0 -96 45 -160q51 -74 142 -74q126 0 171 118l26 -14q-20 -53 -63 -87zM447 285q0 92 -43 150q-48 67 -135 67q-90 0 -141 -65q-45 -58 -51 -152
h370zM312 744h53l-101 -160h-54z" />
    <glyph glyph-name="ecircumflex" unicode="&#xea;" horiz-adv-x="523" 
d="M397 31q-56 -44 -134 -44q-111 0 -169 82q-51 73 -51 189t51 188q58 84 169 84q109 0 166 -75q52 -67 52 -180v-19h-405v-8q0 -96 45 -160q51 -74 142 -74q126 0 171 118l26 -14q-20 -53 -63 -87zM447 285q0 92 -43 150q-48 67 -135 67q-90 0 -141 -65q-45 -58 -51 -152
h370zM242 744h48l99 -160l-36 -4l-87 136l-86 -132h-38z" />
    <glyph glyph-name="edieresis" unicode="&#xeb;" horiz-adv-x="523" 
d="M397 31q-56 -44 -134 -44q-111 0 -169 82q-51 73 -51 189t51 188q58 84 169 84q109 0 166 -75q52 -67 52 -180v-19h-405v-8q0 -96 45 -160q51 -74 142 -74q126 0 171 118l26 -14q-20 -53 -63 -87zM447 285q0 92 -43 150q-48 67 -135 67q-90 0 -141 -65q-45 -58 -51 -152
h370zM322 663q0 46 22 46t22 -46q0 -48 -22 -48t-22 48zM168 661q0 47 21 47q22 0 22 -47q0 -48 -22 -48q-21 0 -21 48z" />
    <glyph glyph-name="igrave" unicode="&#xec;" horiz-adv-x="175" 
d="M72 519h31v-519h-31v519zM92 584l-102 160h53l102 -160h-53z" />
    <glyph glyph-name="iacute" unicode="&#xed;" horiz-adv-x="175" 
d="M72 519h31v-519h-31v519zM135 744h53l-101 -160h-54z" />
    <glyph glyph-name="icircumflex" unicode="&#xee;" horiz-adv-x="175" 
d="M72 519h31v-519h-31v519zM65 744h48l99 -160l-36 -4l-87 136l-86 -132h-38z" />
    <glyph glyph-name="idieresis" unicode="&#xef;" horiz-adv-x="175" 
d="M72 519h31v-519h-31v519zM145 663q0 46 22 46t22 -46q0 -48 -22 -48t-22 48zM-9 661q0 47 21 47q22 0 22 -47q0 -48 -22 -48q-21 0 -21 48z" />
    <glyph glyph-name="ntilde" unicode="&#xf1;" 
d="M69 519h32v-85q49 96 175 96q178 0 178 -186v-344h-32v334q0 83 -30 122q-35 45 -115 45q-147 0 -171 -133q-2 -15 -3.5 -37.5t-1.5 -52.5v-278h-32v519zM387 681q-13 -23 -20 -36.5t-9 -15.5q-16 -21 -43 -22q-18 0 -59 35q-41 37 -49 35q-26 -2 -56 -59l-16 16
q38 74 72 74q16 0 54 -36q41 -35 54 -35q25 0 40 27q4 10 8 19t9 19z" />
    <glyph glyph-name="ograve" unicode="&#xf2;" horiz-adv-x="545" 
d="M44 258q0 118 54 190q60 82 174 82t175 -82q54 -72 54 -190t-54 -191q-62 -80 -175 -80q-114 0 -174 80q-54 73 -54 191zM76 258q0 -105 45 -169q52 -75 151 -75t152 75q45 64 45 169q0 104 -45 169q-53 75 -152 75q-100 0 -151 -75q-45 -65 -45 -169zM276 584l-102 160
h53l102 -160h-53z" />
    <glyph glyph-name="oacute" unicode="&#xf3;" horiz-adv-x="545" 
d="M44 258q0 118 54 190q60 82 174 82t175 -82q54 -72 54 -190t-54 -191q-62 -80 -175 -80q-114 0 -174 80q-54 73 -54 191zM76 258q0 -105 45 -169q52 -75 151 -75t152 75q45 64 45 169q0 104 -45 169q-53 75 -152 75q-100 0 -151 -75q-45 -65 -45 -169zM319 744h53
l-101 -160h-54z" />
    <glyph glyph-name="ocircumflex" unicode="&#xf4;" horiz-adv-x="545" 
d="M44 258q0 118 54 190q60 82 174 82t175 -82q54 -72 54 -190t-54 -191q-62 -80 -175 -80q-114 0 -174 80q-54 73 -54 191zM76 258q0 -105 45 -169q52 -75 151 -75t152 75q45 64 45 169q0 104 -45 169q-53 75 -152 75q-100 0 -151 -75q-45 -65 -45 -169zM249 744h48
l99 -160l-36 -4l-87 136l-86 -132h-38z" />
    <glyph glyph-name="otilde" unicode="&#xf5;" horiz-adv-x="545" 
d="M44 258q0 118 54 190q60 82 174 82t175 -82q54 -72 54 -190t-54 -191q-62 -80 -175 -80q-114 0 -174 80q-54 73 -54 191zM76 258q0 -105 45 -169q52 -75 151 -75t152 75q45 64 45 169q0 104 -45 169q-53 75 -152 75q-100 0 -151 -75q-45 -65 -45 -169zM399 681
q-13 -23 -20 -36.5t-9 -15.5q-16 -21 -43 -22q-18 0 -59 35q-41 37 -49 35q-26 -2 -56 -59l-16 16q38 74 72 74q16 0 54 -36q41 -35 54 -35q25 0 40 27q4 10 8 19t9 19z" />
    <glyph glyph-name="odieresis" unicode="&#xf6;" horiz-adv-x="545" 
d="M44 258q0 118 54 190q60 82 174 82t175 -82q54 -72 54 -190t-54 -191q-62 -80 -175 -80q-114 0 -174 80q-54 73 -54 191zM76 258q0 -105 45 -169q52 -75 151 -75t152 75q45 64 45 169q0 104 -45 169q-53 75 -152 75q-100 0 -151 -75q-45 -65 -45 -169zM329 663
q0 46 22 46t22 -46q0 -48 -22 -48t-22 48zM175 661q0 47 21 47q22 0 22 -47q0 -48 -22 -48q-21 0 -21 48z" />
    <glyph glyph-name="divide" unicode="&#xf7;" horiz-adv-x="746" 
d="M646 313v-30h-536v30h536zM374 488q29 0 29 -45q0 -44 -29 -44q-31 0 -31 44q0 45 31 45zM374 196q29 0 29 -44q0 -45 -29 -45q-31 0 -31 44q0 45 31 45z" />
    <glyph glyph-name="oslash" unicode="&#xf8;" horiz-adv-x="545" 
d="M94 74q-50 74 -50 183q0 117 54 191q61 82 175 82q98 0 161 -66l60 70l21 -20l-63 -73q50 -71 50 -177q0 -122 -52 -195q-60 -82 -177 -82q-98 0 -161 64l-62 -71l-20 19zM273 14q100 0 151 75q45 64 45 169q0 118 -55 181t-145 63q-97 0 -148 -78q-45 -68 -45 -168
q0 -97 40 -158q28 -43 70 -64q43 -20 87 -20zM248 249q0 23 21 23t21 -23q0 -24 -21 -24t-21 24z" />
    <glyph glyph-name="ugrave" unicode="&#xf9;" 
d="M451 0h-31v81q-49 -94 -175 -94q-178 0 -178 185v347h31v-337q0 -85 31 -122q34 -45 115 -45q147 0 171 132q2 15 3.5 37.5t1.5 53.5v281h31v-519zM264 584l-102 160h53l102 -160h-53z" />
    <glyph glyph-name="uacute" unicode="&#xfa;" 
d="M451 0h-31v81q-49 -94 -175 -94q-178 0 -178 185v347h31v-337q0 -85 31 -122q34 -45 115 -45q147 0 171 132q2 15 3.5 37.5t1.5 53.5v281h31v-519zM307 744h53l-101 -160h-54z" />
    <glyph glyph-name="ucircumflex" unicode="&#xfb;" 
d="M451 0h-31v81q-49 -94 -175 -94q-178 0 -178 185v347h31v-337q0 -85 31 -122q34 -45 115 -45q147 0 171 132q2 15 3.5 37.5t1.5 53.5v281h31v-519zM237 744h48l99 -160l-36 -4l-87 136l-86 -132h-38z" />
    <glyph glyph-name="udieresis" unicode="&#xfc;" 
d="M451 0h-31v81q-49 -94 -175 -94q-178 0 -178 185v347h31v-337q0 -85 31 -122q34 -45 115 -45q147 0 171 132q2 15 3.5 37.5t1.5 53.5v281h31v-519zM317 663q0 46 22 46t22 -46q0 -48 -22 -48t-22 48zM163 661q0 47 21 47q22 0 22 -47q0 -48 -22 -48q-21 0 -21 48z" />
    <glyph glyph-name="ydieresis" unicode="&#xff;" 
d="M444 -59q-20 -84 -96 -121q-45 -22 -112 -22q-76 0 -122 37q-51 40 -52 113h27q3 -63 49 -94q41 -29 105 -29q115 0 160 87q5 10 9.5 22.5t6.5 27.5q3 18 3 54v80q-50 -96 -175 -96q-178 0 -178 186v344h32v-334q0 -83 30 -122q34 -45 115 -45q147 0 171 133
q2 14 3.5 36.5t1.5 53.5v278h32v-519q-1 -16 -3 -33t-7 -37zM276 663q0 46 22 46t22 -46q0 -48 -22 -48t-22 48zM122 661q0 47 21 47q22 0 22 -47q0 -48 -22 -48q-21 0 -21 48z" />
    <glyph glyph-name="dotlessi" unicode="&#x131;" horiz-adv-x="175" 
d="M72 519h31v-519h-31v519z" />
    <glyph glyph-name="mu" unicode="&#xb5;" 
d="M452 -80q-99 0 -99 82v9q-36 -11 -77 -11q-126 0 -175 96v-289h-32v723h32v-278q0 -31 1.5 -53.5t3.5 -36.5q24 -133 171 -133q62 0 97 27l4 3q44 38 44 137v334h32v-344q0 -57 -13 -86q-13 -31 -49 -70q-11 -14 -11 -32q0 -51 69 -51h36v-27h-34z" />
    <glyph glyph-name="mu" unicode="&#x3bc;" 
d="M452 -80q-99 0 -99 82v9q-36 -11 -77 -11q-126 0 -175 96v-289h-32v723h32v-278q0 -31 1.5 -53.5t3.5 -36.5q24 -133 171 -133q62 0 97 27l4 3q44 38 44 137v334h32v-344q0 -57 -13 -86q-13 -31 -49 -70q-11 -14 -11 -32q0 -51 69 -51h36v-27h-34z" />
    <glyph glyph-name="macron" unicode="&#xaf;" horiz-adv-x="500" 
d="M141 672h218v-35h-218v35z" />
    <glyph glyph-name="macron" unicode="&#x2c9;" horiz-adv-x="500" 
d="M141 672h218v-35h-218v35z" />
    <glyph glyph-name="periodcentered" unicode="&#xb7;" horiz-adv-x="260" 
d="M130 307q-33 0 -33 32q0 33 33 33t33 -33q0 -32 -33 -32z" />
    <glyph glyph-name="numbersign" unicode="#" horiz-adv-x="534" 
d="M287 570l-40 -109h134l40 109h46l-39 -109l68 -1l-12 -36l-70 1l-50 -142h82l-10 -36h-84l-39 -111h-47l40 111h-135l-41 -111h-46l40 111h-74l11 36h75l52 142l-85 -1l11 36l86 1l40 109h47zM185 283h133l49 142h-133z" />
    <glyph glyph-name="exclam" unicode="!" horiz-adv-x="307" 
d="M134 718h42l-9 -539h-24zM133 47q0 47 21 47q22 0 22 -47t-22 -47q-21 0 -21 47z" />
    <glyph glyph-name="quotedbl" unicode="&#x22;" horiz-adv-x="259" 
d="M209 700v-221h-34v221h34zM84 700v-221h-34v221h34z" />
    <glyph glyph-name="Scaron" horiz-adv-x="573" 
d="M78 219q6 -94 61 -149.5t152 -55.5q84 0 140 42q64 46 64 126q0 83 -67 125q-32 22 -144 52q-1 1 -13 4q-123 34 -157 65q-51 46 -51 119q0 92 64 141q59 47 152 47q101 0 162 -55q64 -56 68 -156h-32q-1 86 -59 136q-56 47 -141 47q-80 0 -129 -40q-53 -42 -53 -120
q0 -56 44 -97q32 -29 142 -58q2 -1 5.5 -1.5t8.5 -2.5q115 -31 158 -58q76 -49 76 -139q0 -100 -71 -156q-65 -50 -168 -50q-109 0 -173 63q-65 61 -72 171h33zM211 944l87 -131l87 136l36 -4l-99 -160h-48l-100 160z" />
    <glyph glyph-name="Scaron" unicode="&#x160;" horiz-adv-x="573" 
d="M78 219q6 -94 61 -149.5t152 -55.5q84 0 140 42q64 46 64 126q0 83 -67 125q-32 22 -144 52q-1 1 -13 4q-123 34 -157 65q-51 46 -51 119q0 92 64 141q59 47 152 47q101 0 162 -55q64 -56 68 -156h-32q-1 86 -59 136q-56 47 -141 47q-80 0 -129 -40q-53 -42 -53 -120
q0 -56 44 -97q32 -29 142 -58q2 -1 5.5 -1.5t8.5 -2.5q115 -31 158 -58q76 -49 76 -139q0 -100 -71 -156q-65 -50 -168 -50q-109 0 -173 63q-65 61 -72 171h33zM211 944l87 -131l87 136l36 -4l-99 -160h-48l-100 160z" />
    <glyph glyph-name="scaron" horiz-adv-x="481" 
d="M81 154q25 -138 166 -138q63 0 104 27q49 31 49 91q0 72 -103 100q-3 1 -9.5 3t-17.5 4q-125 32 -164 62q-42 33 -42 90q0 68 58 105q50 32 120 32q72 0 119 -38q49 -41 56 -111h-31q-16 121 -148 121q-55 0 -94 -24q-47 -29 -47 -81q0 -78 159 -118q1 -1 10 -3
q84 -21 114 -43q53 -35 53 -100q0 -70 -59 -111q-53 -35 -126 -35q-83 0 -136 41q-54 43 -62 126h31zM175 739l86 -131l88 136l35 -4l-99 -160h-48l-100 160z" />
    <glyph glyph-name="scaron" unicode="&#x161;" horiz-adv-x="481" 
d="M81 154q25 -138 166 -138q63 0 104 27q49 31 49 91q0 72 -103 100q-3 1 -9.5 3t-17.5 4q-125 32 -164 62q-42 33 -42 90q0 68 58 105q50 32 120 32q72 0 119 -38q49 -41 56 -111h-31q-16 121 -148 121q-55 0 -94 -24q-47 -29 -47 -81q0 -78 159 -118q1 -1 10 -3
q84 -21 114 -43q53 -35 53 -100q0 -70 -59 -111q-53 -35 -126 -35q-83 0 -136 41q-54 43 -62 126h31zM175 739l86 -131l88 136l35 -4l-99 -160h-48l-100 160z" />
    <glyph glyph-name="brokenbar" unicode="&#xa6;" horiz-adv-x="500" 
d="M268 699v-370h-36v370h36zM268 199v-369h-36v369h36z" />
    <glyph glyph-name="minus" unicode="&#x2212;" horiz-adv-x="688" 
d="M621 313v-30h-497v30h497z" />
    <glyph glyph-name="twosuperior" unicode="&#xb2;" horiz-adv-x="344" 
d="M247 516q25 25 25 67q0 45 -25.5 70.5t-70.5 25.5q-48 0 -74.5 -27t-26.5 -75v-7h-21v5q0 57 32.5 90t89.5 33q54 0 85.5 -29.5t31.5 -83.5q0 -45 -26 -77l-192 -214h217v-17h-262l217 239v0z" />
    <glyph glyph-name="threesuperior" unicode="&#xb3;" horiz-adv-x="344" 
d="M169 278q54 0 92 27q42 28 42 81q0 57 -42 87q-38 27 -96 27h-11q-7 0 -10 -1l-4 20h16q132 -5 132 82q0 78 -113 78q-88 0 -110 -66l-21 9q28 75 136 75q133 0 133 -95q0 -88 -83 -94q21 -4 39 -15t31 -27t20.5 -36t7.5 -41q0 -64 -49 -98q-44 -32 -109 -32
q-123 0 -144 100l21 9q16 -90 122 -90z" />
    <glyph glyph-name="onesuperior" unicode="&#xb9;" horiz-adv-x="344" 
d="M85 604l93 84h27v-418h-26l-1 388l-93 -82v28z" />
    <glyph glyph-name="onequarter" unicode="&#xbc;" horiz-adv-x="823" 
d="M729 106h-242l-8 13l248 288h26v-283h59v-18h-59v-109h-24v109zM730 374l-217 -251h217v251zM625 699h38l-465 -714h-38zM85 604l93 84h27v-418h-26l-1 388l-93 -82v28z" />
    <glyph glyph-name="onehalf" unicode="&#xbd;" horiz-adv-x="823" 
d="M625 699h38l-465 -714h-38zM738 239q26 29 26 68q0 45 -26 70t-71 25q-48 0 -74.5 -27t-26.5 -75v-7h-21v6q0 57 32.5 89.5t89.5 32.5q54 0 86 -30t32 -82q0 -47 -27 -78h1l-192 -213h216v-18h-261zM85 604l93 84h27v-418h-26l-1 388l-93 -82v28z" />
    <glyph glyph-name="threequarters" unicode="&#xbe;" horiz-adv-x="823" 
d="M729 110h-242l-8 13l248 288h26v-283h59v-18h-59v-110h-24v110zM625 699h38l-465 -714h-38zM730 377l-217 -250h217v250zM160 283q53 0 91 27q42 28 42 81q0 57 -42 87q-38 27 -96 27h-11q-7 0 -10 -1l-4 20l16 -1q132 -3 132 83q0 78 -112 78q-89 0 -111 -66l-20 9
q27 75 135 75q133 0 133 -95q0 -88 -82 -94q21 -4 39 -15t30.5 -27t20 -36t7.5 -41q0 -63 -49 -99q-43 -31 -109 -31q-123 0 -144 100l22 9q15 -90 122 -90z" />
    <glyph glyph-name="Eth" unicode="&#xd0;" horiz-adv-x="689" 
d="M82 372h-82v27h82v320h165q158 0 231 -35q159 -80 159 -325q0 -249 -159 -324q-78 -35 -231 -35h-165v372zM255 30q145 0 214 36q133 70 133 293q0 181 -95 267q-45 40 -119 54q-23 4 -55.5 6t-77.5 2h-139v-289h243v-27h-243v-342h139z" />
    <glyph glyph-name="multiply" unicode="&#xd7;" horiz-adv-x="684" 
d="M502 512h36l-178 -214l176 -211h-37l-157 189l-158 -189h-36l176 211l-178 214h36l160 -193z" />
    <glyph glyph-name="Yacute" unicode="&#xdd;" horiz-adv-x="530" 
d="M248 318l-247 401h38l227 -367l224 367h38l-247 -403v-316h-33v318zM311 949h53l-101 -160h-54z" />
    <glyph glyph-name="Thorn" unicode="&#xde;" horiz-adv-x="527" 
d="M82 0v719h34v-144h162q107 0 167 -36q37 -22 51 -70q7 -25 7 -88q0 -58 -9 -89q-31 -103 -219 -103h-159v-189h-34zM116 219h137q87 0 122 9q68 17 84 74q9 28 9 87q0 52 -9 78q-11 34 -43 53q-47 26 -162 26h-138v-327z" />
    <glyph glyph-name="eth" unicode="&#xf0;" 
d="M459 688l-70 -51q86 -92 86 -314q0 -342 -226 -342q-95 0 -151 68q-51 64 -51 162q0 101 50 163q54 67 153 67q151 0 190 -160q1 4 1 9v11v30q0 208 -77 288l-120 -88l-16 23l114 83q-41 29 -99 29q-135 0 -155 -137h-32q8 79 55 123.5t126 44.5q78 0 131 -41l74 54z
M82 211q0 -88 43 -140q47 -59 131 -59q83 0 126 61q40 52 40 139q0 84 -42 140q-47 59 -129 59q-84 0 -129 -60q-40 -52 -40 -140z" />
    <glyph glyph-name="yacute" unicode="&#xfd;" 
d="M444 -59q-20 -84 -96 -121q-45 -22 -112 -22q-76 0 -122 37q-51 40 -52 113h27q3 -63 49 -94q41 -29 105 -29q115 0 160 87q5 10 9.5 22.5t6.5 27.5q3 18 3 54v80q-50 -96 -175 -96q-178 0 -178 186v344h32v-334q0 -83 30 -122q34 -45 115 -45q147 0 171 133
q2 14 3.5 36.5t1.5 53.5v278h32v-519q-1 -16 -3 -33t-7 -37zM266 744h53l-101 -160h-54z" />
    <glyph glyph-name="thorn" unicode="&#xfe;" horiz-adv-x="572" 
d="M101 -186h-32v884h32v-298q51 130 196 130q114 0 175 -82q54 -72 54 -190q0 -119 -54 -191q-60 -80 -175 -80q-145 0 -196 125v-298zM297 502q-100 0 -151 -75q-45 -65 -45 -169q0 -105 45 -169q52 -75 151 -75t152 75q45 64 45 169q0 104 -45 169q-53 75 -152 75z" />
    <glyph glyph-name="foursuperior" unicode="&#x2074;" horiz-adv-x="344" 
d="M369 376h-243l-7 14l248 287l26 1v-283h59v-19h-59v-109h-24v109zM370 644l-218 -250h218v250z" />
    <glyph glyph-name="glyph109" 
d="M239 948v-208h-36v208h36zM318 948v-208h-36v208h36z" />
    <glyph glyph-name="Ecaron" unicode="&#x11a;" horiz-adv-x="567" 
d="M82 719h439v-32h-405v-297h321v-31h-321v-327h415v-32h-449v719zM211 944l87 -131l87 136l36 -4l-99 -160h-48l-100 160z" />
    <glyph glyph-name="Ccaron" unicode="&#x10c;" horiz-adv-x="681" 
d="M618 173q-19 -73 -74 -122q-74 -65 -194 -65q-154 0 -232 113q-67 97 -67 259t69 263q79 114 236 114q107 0 181 -59q53 -42 75 -103l-31 -16q-49 148 -231 148q-135 0 -205 -111q-59 -95 -59 -236q0 -143 57 -234q68 -110 202 -110q108 0 175 58q52 45 69 116zM259 943
l87 -131l87 136l36 -4l-99 -160h-48l-100 160z" />
    <glyph glyph-name="Rcaron" unicode="&#x158;" horiz-adv-x="622" 
d="M116 340v-340h-34v719h239q120 0 175 -34q71 -44 71 -154q0 -137 -130 -177q91 -18 101 -124q1 -3 1 -93l1 -137h-39v161q0 29 -0.5 46.5t-1.5 25.5q-11 66 -56 89q-35 18 -110 18h-217zM338 370q195 0 195 158q0 133 -121 155q-14 2 -37 3.5t-54 1.5h-205v-318h222z
M211 944l87 -131l87 136l36 -4l-99 -160h-48l-100 160z" />
    <glyph glyph-name="Zcaron" unicode="&#x17d;" horiz-adv-x="529" 
d="M9 33l462 655h-423v31h459v-34l-462 -655h474v-30h-510v33zM194 944l87 -131l87 136l36 -4l-99 -160h-48l-100 160z" />
    <glyph glyph-name="ecaron" unicode="&#x11b;" horiz-adv-x="523" 
d="M397 31q-56 -44 -134 -44q-111 0 -169 82q-51 73 -51 189t51 188q58 84 169 84q109 0 166 -75q52 -67 52 -180v-19h-405v-8q0 -96 45 -160q51 -74 142 -74q126 0 171 118l26 -14q-20 -53 -63 -87zM447 285q0 92 -43 150q-48 67 -135 67q-90 0 -141 -65q-45 -58 -51 -152
h370zM175 739l86 -131l88 136l35 -4l-99 -160h-48l-100 160z" />
    <glyph glyph-name="ccaron" unicode="&#x10d;" horiz-adv-x="519" 
d="M466 125q-17 -56 -56 -91q-56 -47 -141 -47q-112 0 -172 82q-53 74 -53 189q0 118 54 190q60 82 174 82q141 0 185 -113l-27 -18q-14 39 -48 67q-45 36 -110 36q-100 0 -151 -75q-45 -65 -45 -169q0 -105 45 -169q52 -75 151 -75q61 0 106.5 33.5t60.5 93.5zM175 739
l86 -131l88 136l35 -4l-99 -160h-48l-100 160z" />
    <glyph glyph-name="rcaron" unicode="&#x159;" horiz-adv-x="263" 
d="M69 519h32v-86q40 85 172 84l-20 -28q-37 0 -53 -6q-34 -10 -70 -51q-29 -35 -29 -87v-345h-32v519zM85 737l86 -131l88 136l35 -4l-99 -160h-48l-100 160z" />
    <glyph glyph-name="zcaron" unicode="&#x17e;" horiz-adv-x="437" 
d="M17 37l358 451h-338v31h372v-37l-358 -451h369v-31h-403v37zM138 736l86 -131l88 136l35 -4l-99 -160h-48l-100 160z" />
    <glyph glyph-name="ampersand" unicode="&#x26;" horiz-adv-x="609" 
d="M559 324q-2 -120 -48 -199l101 -125h-41l-79 96q-93 -115 -216 -115q-97 0 -158 57q-65 60 -63 155q4 169 217 248q-10 -2 -13 -2q-42 0 -79 54q-33 45 -33 84q0 69 42 107q41 35 102 35q63 0 100.5 -36t37.5 -99q0 -117 -145 -178q-95 -40 -139 -87q-57 -59 -57 -125
q0 -79 50 -132q51 -52 129 -52q65 0 124 36q66 38 101 105q36 67 36 173h31zM304 469q27 1 58 34q36 37 36 81q0 49 -31 78t-80 29q-45 0 -75.5 -27.5t-30.5 -72.5q0 -41 28 -78q33 -46 80 -46q2 0 6 0.5t9 1.5z" />
    <glyph glyph-name="Dcaron" unicode="&#x10e;" horiz-adv-x="689" 
d="M82 719h165q158 0 231 -35q159 -80 159 -325q0 -249 -159 -324q-78 -35 -231 -35h-165v719zM255 30q145 0 214 36q133 70 133 293q0 181 -95 267q-45 40 -119 54q-23 4 -55.5 6t-77.5 2h-139v-658h139zM211 944l87 -131l87 136l36 -4l-99 -160h-48l-100 160z" />
    <glyph glyph-name="Ncaron" unicode="&#x147;" horiz-adv-x="682" 
d="M82 719h34l451 -662v662h33v-719h-33l-452 661v-661h-33v719zM253 945l87 -131l87 136l36 -4l-99 -160h-48l-100 160z" />
    <glyph glyph-name="Tcaron" unicode="&#x164;" horiz-adv-x="509" 
d="M240 688h-224v31h482v-31h-224v-688h-34v688zM172 949l87 -131l87 136l36 -4l-99 -160h-48l-100 160z" />
    <glyph glyph-name="Uring" unicode="&#x16e;" horiz-adv-x="671" 
d="M110 719v-452q0 -253 226 -253q115 0 173 70q53 65 53 183v452h33v-468q0 -125 -67 -195q-69 -71 -192 -71q-124 0 -192 71q-67 67 -67 195v468h33zM338 1002q55 0 93 -38t38 -94t-38 -94q-37 -37 -94 -37q-29 0 -53 10t-41.5 27t-27 41t-9.5 53q0 28 10 52.5t27.5 42
t41.5 27.5t53 10zM338 977q-46 0 -76.5 -29.5t-30.5 -77.5q0 -46 30.5 -76.5t76.5 -30.5t76 30.5t30 76.5q0 23 -8 42.5t-22.5 34t-34 22.5t-41.5 8z" />
    <glyph glyph-name="dcaron" unicode="&#x10f;" horiz-adv-x="572" 
d="M502 0h-31v115q-51 -128 -196 -128q-115 0 -175 80q-54 72 -54 191q0 118 54 190q61 82 175 82q148 0 196 -125v313h31v-718zM471 258q0 104 -45 169q-51 75 -151 75t-151 -75q-46 -64 -46 -169t45 -169q52 -75 152 -75t151 75q45 64 45 169zM601 715l34 -1l-55 -221h-35
l31 123q-34 0 -34 37q0 22 18 40.5t40 18.5z" />
    <glyph glyph-name="ncaron" unicode="&#x148;" 
d="M69 519h32v-85q49 96 175 96q178 0 178 -186v-344h-32v334q0 83 -30 122q-35 45 -115 45q-147 0 -171 -133q-2 -15 -3.5 -37.5t-1.5 -52.5v-278h-32v519zM175 739l86 -131l88 136l35 -4l-99 -160h-48l-100 160z" />
    <glyph glyph-name="tcaron" unicode="&#x165;" horiz-adv-x="187" 
d="M79 661v-142h104v-28h-104v-491h-32v661h32zM199 806l34 -1l-55 -221h-35l31 123q-34 0 -34 37q0 22 18 40.5t40 18.5z" />
    <glyph glyph-name="uring" unicode="&#x16f;" 
d="M451 0h-31v81q-49 -94 -175 -94q-178 0 -178 185v347h31v-337q0 -85 31 -122q34 -45 115 -45q147 0 171 132q2 15 3.5 37.5t1.5 53.5v281h31v-519zM259 816q55 0 93 -38t38 -94t-38 -94q-37 -37 -94 -37q-29 0 -53 10t-41.5 27t-27 41t-9.5 53q0 28 10 52.5t27.5 42
t41.5 27.5t53 10zM259 791q-46 0 -76.5 -29.5t-30.5 -77.5q0 -46 30.5 -76.5t76.5 -30.5t76 30.5t30 76.5q0 23 -8 42.5t-22.5 34t-34 22.5t-41.5 8z" />
    <glyph glyph-name="dollar" unicode="$" horiz-adv-x="573" 
d="M333 283v-266q61 9 105 44q57 46 57 121q0 83 -67 125q-17 10 -52.5 23t-91.5 29l-13 4q-125 35 -157 65q-51 46 -51 119q0 84 59 137q40 34 97 45v110h36v-105q4 1 12 1h12h9q6 0 9 -1v105h36v-109q66 -11 110 -52q62 -56 66 -154h-32q-1 83 -56 133q-36 33 -88 44v-280
l-36 10v276h-20h-11q-8 0 -11 -1v-260l-36 10v245q-45 -10 -75 -37q-49 -43 -49 -117q0 -56 44 -97q32 -29 142 -58q2 -1 5.5 -1.5t8.5 -2.5q57 -14 96 -29t62 -29q76 -49 76 -139q0 -94 -65 -150q-51 -43 -131 -54v-92h-36v90h-7q-8 0 -17 0.5t-18 1.5v-92h-36v98
q-59 14 -100 53q-66 63 -74 173h33q6 -95 64 -150q32 -32 77 -45v303l36 -10v-300q18 -3 36 -3h6v278z" />
    <glyph glyph-name="percent" unicode="%" horiz-adv-x="727" 
d="M406 175q0 64 35 117q41 56 103 56t103 -57q36 -51 36 -116q0 -66 -35 -116q-41 -56 -104 -56t-103 57q-35 50 -35 115zM45 547q0 66 36 116q41 56 103 56q61 0 102 -56q36 -51 36 -116q0 -66 -35 -116q-39 -56 -103 -56q-62 0 -103 56q-36 49 -36 116zM76 547
q0 -54 27 -94q30 -48 81 -48q48 0 80 48q27 40 27 94q0 53 -27 94q-32 47 -80 47q-51 0 -81 -47q-27 -41 -27 -94zM437 175q0 -53 26 -94q32 -47 81 -47t81 48q26 41 26 93q0 53 -26 94q-32 47 -81 47q-50 0 -81 -46q-26 -41 -26 -95zM550 752l-346 -752h-35l347 752h34z
" />
    </font>
</defs>
</svg>
